<svg width="120" height="35" viewBox="0 0 120 35" fill="none" xmlns="http://www.w3.org/2000/svg">
<path d="M119.339 30.6701C119.339 32.5176 117.812 34.0141 115.922 34.0141H4.08877C2.20007 34.0141 0.666992 32.5176 0.666992 30.6701V4.00246C0.666992 2.15581 2.20007 0.654053 4.08877 0.654053H115.921C117.812 0.654053 119.338 2.15581 119.338 4.00246L119.339 30.6701Z" fill="black"/>
<path d="M115.561 0.694473C117.619 0.694473 119.293 2.32714 119.293 4.33356V30.3348C119.293 32.3412 117.619 33.9739 115.561 33.9739H4.44466C2.38678 33.9739 0.712256 32.3412 0.712256 30.3348V4.33356C0.712256 2.32714 2.38678 0.694473 4.44466 0.694473H115.561ZM115.561 2.53288e-05H4.44466C2.00121 2.53288e-05 0 1.9512 0 4.33356V30.3348C0 32.7172 2.00121 34.6683 4.44466 34.6683H115.561C118.004 34.6683 120.006 32.7172 120.006 30.3348V4.33356C120.006 1.9512 118.004 2.53288e-05 115.561 2.53288e-05Z" fill="#A6A6A6"/>
<path d="M26.7817 17.1469C26.7559 14.3535 29.1276 12.9945 29.236 12.9313C27.8929 11.0219 25.811 10.761 25.0794 10.7402C23.3309 10.5608 21.6348 11.7603 20.7441 11.7603C19.8356 11.7603 18.464 10.7576 16.9857 10.787C15.0834 10.8156 13.3037 11.8895 12.3277 13.557C10.3134 16.9571 11.8156 21.9537 13.7455 24.702C14.7109 26.048 15.8389 27.5509 17.3155 27.498C18.76 27.4399 19.2996 26.6001 21.0427 26.6001C22.7699 26.6001 23.2766 27.498 24.7825 27.4642C26.3328 27.4399 27.3088 26.1122 28.2404 24.754C29.356 23.2113 29.8041 21.6919 29.8218 21.6139C29.7854 21.6018 26.811 20.495 26.7817 17.1469Z" fill="white"/>
<path d="M23.9371 8.93227C24.714 7.98496 25.2456 6.69617 25.0981 5.38831C23.9736 5.43684 22.5673 6.14668 21.7574 7.07319C21.041 7.88962 20.4009 9.22782 20.5663 10.4863C21.8295 10.5782 23.1264 9.86485 23.9371 8.93227Z" fill="white"/>
<path d="M47.6864 27.3047H45.6676L44.5618 23.9167H40.718L39.6646 27.3047H37.6992L41.5074 15.7705H43.8595L47.6864 27.3047ZM44.2284 22.4953L43.2284 19.4835C43.1226 19.1758 42.9244 18.4512 42.6319 17.3106H42.5963C42.4799 17.8012 42.2923 18.5258 42.0345 19.4835L41.0523 22.4953H44.2284Z" fill="white"/>
<path d="M57.4802 23.0439C57.4802 24.4584 57.0882 25.5765 56.3042 26.3972C55.6019 27.1279 54.7299 27.4928 53.6889 27.4928C52.5653 27.4928 51.7582 27.0993 51.2666 26.3123H51.2311V30.6935H49.3358V21.7257C49.3358 20.8364 49.3118 19.9238 49.2656 18.9878H50.9324L51.0382 20.306H51.0737C51.7057 19.3128 52.6649 18.817 53.9521 18.817C54.9583 18.817 55.7984 19.2044 56.4704 19.9801C57.1442 20.7567 57.4802 21.7777 57.4802 23.0439ZM55.5495 23.1116C55.5495 22.302 55.3628 21.6347 54.9877 21.1095C54.5779 20.5617 54.0276 20.2878 53.3378 20.2878C52.8702 20.2878 52.4453 20.4404 52.0658 20.7411C51.6853 21.0445 51.4364 21.4405 51.3199 21.9311C51.2613 22.1599 51.2319 22.3471 51.2319 22.4945V23.8812C51.2319 24.4862 51.4222 24.9966 51.8026 25.4135C52.1831 25.8304 52.6773 26.0384 53.2854 26.0384C53.9992 26.0384 54.5548 25.7697 54.9521 25.2341C55.3504 24.6976 55.5495 23.9904 55.5495 23.1116Z" fill="white"/>
<path d="M67.2909 23.0439C67.2909 24.4584 66.8989 25.5765 66.1139 26.3972C65.4126 27.1279 64.5405 27.4928 63.4996 27.4928C62.376 27.4928 61.5688 27.0993 61.0781 26.3123H61.0426V30.6935H59.1474V21.7257C59.1474 20.8364 59.1234 19.9238 59.0771 18.9878H60.7439L60.8497 20.306H60.8852C61.5164 19.3128 62.4755 18.817 63.7636 18.817C64.769 18.817 65.609 19.2044 66.2828 19.9801C66.954 20.7567 67.2909 21.7777 67.2909 23.0439ZM65.3601 23.1116C65.3601 22.302 65.1725 21.6347 64.7974 21.1095C64.3876 20.5617 63.8392 20.2878 63.1485 20.2878C62.68 20.2878 62.256 20.4404 61.8755 20.7411C61.495 21.0445 61.247 21.4405 61.1306 21.9311C61.0728 22.1599 61.0426 22.3471 61.0426 22.4945V23.8812C61.0426 24.4862 61.2328 24.9966 61.6115 25.4135C61.992 25.8295 62.4862 26.0384 63.096 26.0384C63.8098 26.0384 64.3654 25.7697 64.7628 25.2341C65.161 24.6976 65.3601 23.9904 65.3601 23.1116Z" fill="white"/>
<path d="M78.2609 24.0702C78.2609 25.0513 77.9115 25.8495 77.2102 26.4657C76.4395 27.1392 75.3665 27.4755 73.9878 27.4755C72.7149 27.4755 71.6944 27.2362 70.9219 26.757L71.361 25.2168C72.193 25.7074 73.106 25.9535 74.1007 25.9535C74.8145 25.9535 75.3701 25.7958 75.7692 25.482C76.1666 25.1683 76.3648 24.7471 76.3648 24.2218C76.3648 23.7538 76.2012 23.3595 75.8732 23.0396C75.547 22.7198 75.0021 22.4226 74.2411 22.1478C72.1699 21.3946 71.1352 20.2913 71.1352 18.8405C71.1352 17.8923 71.4979 17.1148 72.2242 16.5099C72.9478 15.904 73.9131 15.6016 75.1203 15.6016C76.1968 15.6016 77.0911 15.7844 77.8049 16.1493L77.3311 17.6557C76.6644 17.302 75.9106 17.1252 75.067 17.1252C74.4003 17.1252 73.8794 17.2856 73.506 17.6045C73.1904 17.8897 73.0322 18.2372 73.0322 18.6489C73.0322 19.1048 73.2127 19.4818 73.5753 19.7782C73.8909 20.0521 74.4643 20.3485 75.2963 20.6683C76.3141 21.0679 77.0617 21.535 77.5426 22.0707C78.0218 22.6046 78.2609 23.2728 78.2609 24.0702Z" fill="white"/>
<path d="M84.526 20.3746H82.437V24.4126C82.437 25.4396 82.805 25.9527 83.5428 25.9527C83.8815 25.9527 84.1624 25.9241 84.3846 25.8669L84.4371 27.2701C84.0637 27.4062 83.5721 27.4746 82.9632 27.4746C82.2147 27.4746 81.6298 27.2519 81.2076 26.8073C80.7871 26.3618 80.5756 25.6147 80.5756 24.5651V20.3728H79.3311V18.9861H80.5756V17.4633L82.437 16.9155V18.9861H84.526V20.3746Z" fill="white"/>
<path d="M93.9517 23.0779C93.9517 24.3563 93.5766 25.4058 92.8281 26.2266C92.0432 27.0717 91.0014 27.4929 89.7027 27.4929C88.451 27.4929 87.4545 27.0881 86.7114 26.2786C85.9683 25.4691 85.5967 24.4473 85.5967 23.2157C85.5967 21.9269 85.9789 20.8712 86.7461 20.0505C87.5114 19.2288 88.5444 18.818 89.8431 18.818C91.0947 18.818 92.1019 19.2227 92.8619 20.0331C93.5891 20.8192 93.9517 21.8341 93.9517 23.0779ZM91.9854 23.1377C91.9854 22.3706 91.8174 21.7128 91.477 21.1642C91.0796 20.5003 90.5116 20.1692 89.7755 20.1692C89.0137 20.1692 88.435 20.5011 88.0377 21.1642C87.6972 21.7137 87.5292 22.3819 87.5292 23.1723C87.5292 23.9394 87.6972 24.5972 88.0377 25.145C88.4475 25.8089 89.02 26.1399 89.7587 26.1399C90.4822 26.1399 91.0503 25.8019 91.4601 25.1276C91.8094 24.5686 91.9854 23.9038 91.9854 23.1377Z" fill="white"/>
<path d="M100.113 20.6128C99.9251 20.579 99.725 20.5617 99.5153 20.5617C98.8486 20.5617 98.333 20.807 97.9703 21.2984C97.6547 21.7318 97.4965 22.2795 97.4965 22.9408V27.3047H95.6022L95.6199 21.6069C95.6199 20.6484 95.5959 19.7756 95.5488 18.9886H97.1996L97.2689 20.5799H97.3214C97.5214 20.033 97.8369 19.5927 98.269 19.2625C98.6912 18.9652 99.1472 18.817 99.6388 18.817C99.8139 18.817 99.9722 18.8292 100.113 18.8508V20.6128Z" fill="white"/>
<path d="M108.588 22.7527C108.588 23.0838 108.565 23.3629 108.518 23.5908H102.833C102.855 24.4125 103.13 25.0408 103.658 25.4742C104.137 25.8616 104.756 26.0557 105.517 26.0557C106.359 26.0557 107.127 25.9249 107.818 25.6622L108.115 26.945C107.308 27.2882 106.355 27.4589 105.255 27.4589C103.932 27.4589 102.894 27.0793 102.138 26.3209C101.385 25.5626 101.007 24.5442 101.007 23.2667C101.007 22.0125 101.358 20.9682 102.061 20.1353C102.797 19.246 103.792 18.8014 105.043 18.8014C106.273 18.8014 107.204 19.246 107.836 20.1353C108.336 20.8416 108.588 21.7153 108.588 22.7527ZM106.78 22.2734C106.793 21.7257 106.669 21.2524 106.412 20.8529C106.084 20.3389 105.58 20.0824 104.902 20.0824C104.283 20.0824 103.779 20.3329 103.394 20.8356C103.078 21.2351 102.89 21.7144 102.833 22.2726H106.78V22.2734Z" fill="white"/>
<path d="M43.6023 8.67487C43.6023 9.69498 43.2885 10.4629 42.6618 10.9786C42.0814 11.4544 41.2564 11.6927 40.1879 11.6927C39.6581 11.6927 39.2048 11.6702 38.8252 11.6251V6.05134C39.3203 5.97334 39.8537 5.93347 40.4297 5.93347C41.4475 5.93347 42.2147 6.14928 42.7321 6.5809C43.3116 7.06886 43.6023 7.76656 43.6023 8.67487ZM42.62 8.7C42.62 8.03871 42.4405 7.53168 42.0814 7.17806C41.7222 6.82531 41.1978 6.64851 40.5071 6.64851C40.2137 6.64851 39.9639 6.66757 39.7568 6.70744V10.9448C39.8715 10.9621 40.0813 10.9699 40.3862 10.9699C41.0991 10.9699 41.6493 10.7766 42.0369 10.3901C42.4245 10.0035 42.62 9.44017 42.62 8.7Z" fill="white"/>
<path d="M48.8103 9.56586C48.8103 10.1942 48.6262 10.7091 48.2582 11.1129C47.8724 11.5281 47.3613 11.7352 46.723 11.7352C46.1079 11.7352 45.6181 11.5368 45.2527 11.1381C44.8883 10.7403 44.7061 10.2384 44.7061 9.63347C44.7061 9.00077 44.8936 8.48161 45.2705 8.07859C45.6474 7.67558 46.1541 7.47363 46.7924 7.47363C47.4075 7.47363 47.9018 7.67211 48.276 8.06993C48.6316 8.45648 48.8103 8.9557 48.8103 9.56586ZM47.844 9.59533C47.844 9.21832 47.7604 8.89503 47.5942 8.62549C47.3986 8.2996 47.1204 8.13666 46.7586 8.13666C46.3844 8.13666 46.0999 8.2996 45.9043 8.62549C45.7372 8.89503 45.6545 9.22352 45.6545 9.6118C45.6545 9.98882 45.7381 10.3121 45.9043 10.5816C46.1061 10.9075 46.387 11.0705 46.7497 11.0705C47.1053 11.0705 47.3844 10.9049 47.5853 10.573C47.7578 10.2982 47.844 9.97235 47.844 9.59533Z" fill="white"/>
<path d="M55.7941 7.55688L54.4829 11.6425H53.6295L53.0864 9.86839C52.9486 9.42551 52.8366 8.98522 52.7495 8.5484H52.7326C52.6517 8.99735 52.5397 9.43677 52.3957 9.86839L51.8188 11.6425H50.9556L49.7227 7.55688H50.68L51.1538 9.49918C51.2685 9.95853 51.3627 10.3962 51.4383 10.8105H51.4552C51.5245 10.469 51.6392 10.0339 51.801 9.50784L52.3957 7.55775H53.1548L53.7246 9.46624C53.8624 9.93166 53.9744 10.3798 54.0606 10.8114H54.0864C54.1495 10.391 54.2446 9.94293 54.3709 9.46624L54.8793 7.55775H55.7941V7.55688Z" fill="white"/>
<path d="M60.6232 11.6425H59.6917V9.30242C59.6917 8.58132 59.4107 8.22077 58.8472 8.22077C58.5707 8.22077 58.3476 8.31958 58.1742 8.51805C58.0027 8.71653 57.9156 8.95054 57.9156 9.21835V11.6417H56.984V8.72433C56.984 8.36551 56.9724 7.97636 56.9502 7.55514H57.7689L57.8125 8.1939H57.8382C57.9467 7.99543 58.1085 7.83162 58.3209 7.70075C58.5734 7.54821 58.8561 7.47107 59.1654 7.47107C59.5565 7.47107 59.8819 7.59414 60.1406 7.84115C60.4624 8.14363 60.6232 8.59519 60.6232 9.19495V11.6425Z" fill="white"/>
<path d="M63.1924 11.6426H62.2617V5.68225H63.1924V11.6426Z" fill="white"/>
<path d="M68.6765 9.56586C68.6765 10.1942 68.4925 10.7091 68.1244 11.1129C67.7386 11.5281 67.2266 11.7352 66.5893 11.7352C65.9732 11.7352 65.4834 11.5368 65.119 11.1381C64.7545 10.7403 64.5723 10.2384 64.5723 9.63347C64.5723 9.00077 64.7598 8.48161 65.1367 8.07859C65.5136 7.67558 66.0203 7.47363 66.6577 7.47363C67.2737 7.47363 67.7671 7.67211 68.1422 8.06993C68.4978 8.45648 68.6765 8.9557 68.6765 9.56586ZM67.7093 9.59533C67.7093 9.21832 67.6257 8.89503 67.4595 8.62549C67.2648 8.2996 66.9857 8.13666 66.6248 8.13666C66.2497 8.13666 65.9652 8.2996 65.7705 8.62549C65.6034 8.89503 65.5208 9.22352 65.5208 9.6118C65.5208 9.98882 65.6043 10.3121 65.7705 10.5816C65.9723 10.9075 66.2532 11.0705 66.6159 11.0705C66.9715 11.0705 67.2497 10.9049 67.4506 10.573C67.624 10.2982 67.7093 9.97235 67.7093 9.59533Z" fill="white"/>
<path d="M73.1863 11.6425H72.3498L72.2804 11.1719H72.2547C71.9684 11.5472 71.5604 11.7352 71.0306 11.7352C70.635 11.7352 70.315 11.6113 70.0741 11.3652C69.8554 11.1415 69.7461 10.8633 69.7461 10.5331C69.7461 10.0339 69.9594 9.6534 70.3888 9.38992C70.8173 9.12644 71.42 8.9973 72.196 9.00337V8.9271C72.196 8.38888 71.9062 8.1202 71.3257 8.1202C70.9124 8.1202 70.5479 8.2216 70.2332 8.42268L70.0439 7.82638C70.4332 7.5915 70.9142 7.47363 71.4813 7.47363C72.5764 7.47363 73.1258 8.03699 73.1258 9.16371V10.6683C73.1258 11.0765 73.1463 11.4016 73.1863 11.6425ZM72.2191 10.2384V9.60833C71.1915 9.591 70.6777 9.86575 70.6777 10.4317C70.6777 10.6449 70.7364 10.8044 70.8564 10.911C70.9764 11.0176 71.1293 11.0705 71.3115 11.0705C71.516 11.0705 71.7071 11.0072 71.8813 10.8815C72.0564 10.755 72.164 10.5946 72.204 10.3979C72.2138 10.3537 72.2191 10.3 72.2191 10.2384Z" fill="white"/>
<path d="M78.4797 11.6426H77.653L77.6094 10.9865H77.5836C77.3196 11.4857 76.8698 11.7353 76.2378 11.7353C75.7329 11.7353 75.3124 11.5421 74.9791 11.1555C74.6457 10.769 74.4795 10.2671 74.4795 9.65091C74.4795 8.98961 74.6599 8.45398 75.0226 8.0449C75.3738 7.66354 75.804 7.47287 76.316 7.47287C76.8787 7.47287 77.2725 7.65748 77.4965 8.02756H77.5143V5.68225H78.4468V10.5419C78.4468 10.9397 78.4575 11.3063 78.4797 11.6426ZM77.5143 9.91958V9.23835C77.5143 9.12048 77.5054 9.02514 77.4885 8.95234C77.4361 8.73393 77.3232 8.55019 77.1516 8.40198C76.9783 8.25377 76.7694 8.17924 76.5285 8.17924C76.1809 8.17924 75.9089 8.31358 75.7089 8.58312C75.5106 8.85267 75.4102 9.19675 75.4102 9.6171C75.4102 10.021 75.5053 10.3486 75.6964 10.6008C75.8982 10.8695 76.1702 11.0038 76.5107 11.0038C76.8165 11.0038 77.0609 10.892 77.2467 10.6676C77.4263 10.4604 77.5143 10.2108 77.5143 9.91958Z" fill="white"/>
<path d="M86.447 9.56586C86.447 10.1942 86.263 10.7091 85.8949 11.1129C85.5091 11.5281 84.9989 11.7352 84.3598 11.7352C83.7455 11.7352 83.2557 11.5368 82.8895 11.1381C82.525 10.7403 82.3428 10.2384 82.3428 9.63347C82.3428 9.00077 82.5303 8.48161 82.9072 8.07859C83.2842 7.67558 83.7908 7.47363 84.43 7.47363C85.0442 7.47363 85.5394 7.67211 85.9127 8.06993C86.2683 8.45648 86.447 8.9557 86.447 9.56586ZM85.4816 9.59533C85.4816 9.21832 85.398 8.89503 85.2318 8.62549C85.0353 8.2996 84.758 8.13666 84.3953 8.13666C84.022 8.13666 83.7375 8.2996 83.5411 8.62549C83.3739 8.89503 83.2913 9.22352 83.2913 9.6118C83.2913 9.98882 83.3748 10.3121 83.5411 10.5816C83.7428 10.9075 84.0237 11.0705 84.3864 11.0705C84.742 11.0705 85.022 10.9049 85.2229 10.573C85.3945 10.2982 85.4816 9.97235 85.4816 9.59533Z" fill="white"/>
<path d="M91.4564 11.6425H90.5256V9.30242C90.5256 8.58132 90.2447 8.22077 89.6803 8.22077C89.4038 8.22077 89.1807 8.31958 89.0082 8.51805C88.8358 8.71653 88.7496 8.95054 88.7496 9.21835V11.6417H87.8171V8.72433C87.8171 8.36551 87.8064 7.97636 87.7842 7.55514H88.602L88.6456 8.1939H88.6713C88.7807 7.99543 88.9425 7.83162 89.154 7.70075C89.4074 7.54821 89.6892 7.47107 89.9994 7.47107C90.3896 7.47107 90.715 7.59414 90.9737 7.84115C91.2963 8.14363 91.4564 8.59519 91.4564 9.19495V11.6425Z" fill="white"/>
<path d="M97.7259 8.23719H96.7001V10.2219C96.7001 10.7264 96.8823 10.9786 97.2433 10.9786C97.4104 10.9786 97.549 10.9647 97.6584 10.9361L97.6824 11.6251C97.4984 11.6928 97.2566 11.7266 96.9588 11.7266C96.5908 11.7266 96.3045 11.6173 96.0974 11.3989C95.8894 11.1805 95.7863 10.813 95.7863 10.2974V8.23719H95.1738V7.55682H95.7863V6.80799L96.6992 6.53931V7.55596H97.7251V8.23719H97.7259Z" fill="white"/>
<path d="M102.658 11.6426H101.725V9.31982C101.725 8.58746 101.444 8.22084 100.882 8.22084C100.45 8.22084 100.155 8.43318 99.9928 8.85787C99.9653 8.94714 99.9493 9.05634 99.9493 9.18462V11.6417H99.0186V5.68225H99.9493V8.14457H99.967C100.26 7.69648 100.681 7.47287 101.226 7.47287C101.612 7.47287 101.931 7.59594 102.184 7.84295C102.5 8.15063 102.658 8.60826 102.658 9.21322V11.6426Z" fill="white"/>
<path d="M107.745 9.40638C107.745 9.56932 107.733 9.70626 107.71 9.81806H104.916C104.929 10.222 105.062 10.5296 105.321 10.7428C105.557 10.9335 105.862 11.0289 106.236 11.0289C106.649 11.0289 107.026 10.9647 107.365 10.8356L107.511 11.4665C107.114 11.6347 106.646 11.7188 106.105 11.7188C105.456 11.7188 104.945 11.5324 104.575 11.1597C104.204 10.787 104.02 10.287 104.02 9.65946C104.02 9.04323 104.191 8.53014 104.537 8.12105C104.898 7.68423 105.386 7.46582 106.002 7.46582C106.605 7.46582 107.062 7.68423 107.372 8.12105C107.621 8.46773 107.745 8.89675 107.745 9.40638ZM106.856 9.1715C106.863 8.90195 106.802 8.66968 106.676 8.4738C106.514 8.22159 106.268 8.09505 105.934 8.09505C105.63 8.09505 105.382 8.21812 105.193 8.46513C105.038 8.66188 104.947 8.89675 104.916 9.1715H106.856Z" fill="white"/>
</svg>
