<svg width="139" height="42" viewBox="0 0 139 42" fill="none" xmlns="http://www.w3.org/2000/svg">
<g clip-path="url(#clip0_210_4963)">
<path d="M0.292025 36.6835L1.01079 35.6529C1.65782 36.131 2.46032 36.4133 3.27305 36.3257C4.18575 36.2409 4.6183 35.7927 4.57353 35.2413C4.50264 34.5491 3.95617 34.4139 3.16283 34.1619L2.04239 33.8008C1.1888 33.5571 0.282697 33.0418 0.174543 31.8884C0.0488847 30.6444 1.07864 29.5825 2.67356 29.4265C3.62651 29.3328 4.56896 29.619 5.27376 30.1787L4.64717 31.1317C4.07734 30.7559 3.51226 30.5702 2.7298 30.6486C1.98759 30.7181 1.5267 31.1055 1.58092 31.6772C1.64402 32.2892 2.28991 32.4471 3.01465 32.6472L4.08539 32.9969C5.11781 33.2856 5.87369 33.8067 5.98267 34.9301C6.10778 36.1941 5.14523 37.3579 3.31957 37.5375C2.22612 37.6473 1.14455 37.3273 0.302021 36.6837L0.292025 36.6835Z" fill="#424242"/>
<path d="M7.42876 34.73L7.03902 31.0978L8.42375 30.9461L8.79847 34.3977C8.90271 35.331 9.24152 35.7405 10.0443 35.6527C10.5963 35.5879 10.9639 35.318 11.423 34.6304L10.9922 30.677L12.3669 30.5249L12.9951 36.3845L11.8614 36.5032L11.6567 35.5872L11.6067 35.5858C11.127 36.2928 10.5228 36.7963 9.64983 36.8922C8.29537 37.0348 7.59693 36.2452 7.43876 34.7303L7.42876 34.73Z" fill="#424242"/>
<path d="M14.6448 34.6095C14.4911 33.2947 15.5634 32.504 18.4295 31.9631C18.3075 31.3094 17.8595 30.8669 16.896 30.9803C16.2335 31.062 15.6232 31.4253 15.0618 31.8299L14.445 30.9825C15.0994 30.4704 16.0138 29.9655 17.0272 29.8535C18.6533 29.6584 19.6516 30.4563 19.8464 32.0923L20.2608 35.5551L19.1266 35.6938L18.9363 34.9782L18.8963 34.9771C18.3408 35.532 17.5969 36.0216 16.8142 36.11C15.6699 36.2484 14.7663 35.6432 14.6543 34.6297L14.6448 34.6095ZM18.6816 34.0608L18.5356 32.8263C16.4543 33.2089 15.8901 33.7135 15.9726 34.3461C16.0385 34.8581 16.5139 35.0313 17.0962 34.9574C17.6884 34.8837 18.1979 34.5477 18.6818 34.0508L18.6816 34.0608Z" fill="#424242"/>
<path d="M30.3795 33.574L30.3395 33.5729L30.311 34.2424L29.2264 34.3924L28.0581 25.9969L29.4339 25.8049L29.734 27.974L29.8155 29.0067L29.8555 29.0078C30.2708 28.4591 30.8919 28.0661 31.5245 27.9835C33.0408 27.7754 34.0725 28.8143 34.3229 30.6119C34.5975 32.6203 33.5305 33.9413 32.1847 34.1341C31.6224 34.2086 30.9574 34.0202 30.3792 33.584L30.3795 33.574ZM32.9165 30.8231C32.7586 29.6583 32.2457 29.0339 31.3016 29.1678C30.8599 29.2256 30.422 29.5036 30.0164 30.0626L30.3841 32.6838C30.8653 33.0072 31.3735 33.0813 31.745 33.0316C32.5586 32.914 33.0999 32.1487 32.9165 30.8231Z" fill="#424242"/>
<path d="M35.9493 31.8474C35.7554 30.5415 36.7985 29.72 39.6473 29.0785C39.4951 28.4341 39.0368 28.0012 38.0925 28.1452C37.4394 28.2472 36.8286 28.6304 36.2867 29.0556L35.6393 28.2274C36.2843 27.695 37.1794 27.1596 38.184 27.0073C39.8014 26.7619 40.8305 27.5306 41.0759 29.148L41.6009 32.5939L40.4758 32.7628L40.2652 32.0567L40.2252 32.0556C39.6891 32.631 38.9647 33.1412 38.1812 33.2596C37.0461 33.4283 36.1213 32.8625 35.9693 31.8479L35.9493 31.8474ZM39.9699 31.1582L39.7837 29.9326C37.7104 30.3855 37.1757 30.9109 37.2685 31.5337C37.3444 32.046 37.8303 32.1995 38.4129 32.1156C38.9954 32.0316 39.4955 31.6753 39.9699 31.1582Z" fill="#424242"/>
<path d="M43.0591 31.5938L43.516 30.6261C44.2866 30.9775 45.1229 31.1207 46.0675 30.9667C46.8714 30.8389 47.2018 30.4679 47.1423 30.0861C47.0828 29.7043 46.7874 29.5361 45.3887 29.4674C43.7802 29.3929 43.0021 28.9512 42.8565 28.0669C42.6945 27.052 43.4991 26.1739 45.1267 25.9188C46.0914 25.7654 47.0352 26.0016 47.6875 26.2897L47.1911 27.2364C46.5683 26.9691 45.8613 26.8495 45.1677 26.9703C44.4141 27.0896 44.1445 27.4322 44.2045 27.794C44.2732 28.2061 44.7214 28.2785 45.8501 28.3397C47.7777 28.4531 48.3364 28.8687 48.4909 29.7933C48.6532 30.7982 47.8164 31.7554 46.0477 32.0466C44.9623 32.2267 43.8485 31.9858 43.0488 31.6035L43.0591 31.5938Z" fill="#424242"/>
<path d="M49.7533 28.2776C49.4254 26.3878 50.6645 24.9915 52.2225 24.7245C53.9615 24.4225 55.1148 25.4047 55.4004 27.0132C55.4529 27.2848 55.4554 27.555 55.461 27.7152L50.8068 28.5268L50.6434 27.5619L54.413 26.9059L54.2034 27.2502C54.005 26.1043 53.3682 25.6165 52.4536 25.7713C51.4887 25.9347 50.8757 26.7581 51.1 28.0548C51.3328 29.4017 52.2592 29.9075 53.4654 29.7008C54.0685 29.5974 54.546 29.3305 55.0069 28.9431L55.6259 29.7105C55.0815 30.2257 54.3196 30.6448 53.4652 30.7912C51.6859 31.1021 50.0895 30.2277 49.763 28.2879L49.7533 28.2776Z" fill="#424242"/>
<path d="M63.7379 25.7733C63.3597 23.8921 64.3689 22.4895 65.6764 22.2355C66.3403 22.1038 66.8663 22.2584 67.4072 22.5935L67.4372 22.5943L67.1838 21.6269L66.7715 19.5347L68.1296 19.2622L69.7805 27.571L68.664 27.7902L68.4221 27.1333L68.3821 27.1322C68.0267 27.6826 67.4529 28.1769 66.7992 28.2989C65.3107 28.5878 64.1055 27.6742 63.7282 25.763L63.7379 25.7733ZM68.0788 26.1634L67.5603 23.5681C67.0685 23.2644 66.6398 23.2125 66.2275 23.2911C65.4228 23.449 64.8898 24.2745 65.1265 25.4815C65.3718 26.7388 66.0369 27.2874 66.9118 27.1215C67.3947 27.0248 67.7731 26.7252 68.0785 26.1734L68.0788 26.1634Z" fill="#424242"/>
<path d="M70.8302 24.3388C70.4321 22.4571 71.6223 21.0194 73.172 20.6921C74.8926 20.3296 76.087 21.2729 76.4232 22.8628C76.4757 23.1344 76.4982 23.4051 76.5041 23.5553L71.8854 24.528L71.6818 23.572L75.4249 22.7852L75.2251 23.1398C74.9864 22.0028 74.3291 21.5344 73.4236 21.7195C72.4677 21.9231 71.8744 22.757 72.1489 24.0451C72.432 25.3835 73.3692 25.8596 74.5767 25.6028C75.1804 25.4795 75.6385 25.192 76.0997 24.7946L76.7392 25.5426C76.2042 26.078 75.4718 26.5179 74.6266 26.6946C72.8556 27.0658 71.2378 26.2408 70.8305 24.3288L70.8302 24.3388Z" fill="#424242"/>
<path d="M84.9203 21.2771C84.473 19.364 85.7137 17.9078 87.4658 17.4961C88.3821 17.2813 89.1876 17.4536 89.7782 17.8001L89.3405 18.7984C88.7973 18.5433 88.3094 18.4597 87.7958 18.5856C86.6479 18.854 86.0313 19.8073 86.3097 20.9554C86.5781 22.1033 87.5428 22.6702 88.6606 22.401C89.3151 22.249 89.7868 21.8319 90.1494 21.3817L90.9194 22.1133C90.3889 22.8489 89.6251 23.338 88.8093 23.5355C87.0067 23.9658 85.3878 23.1808 84.93 21.2874L84.9203 21.2771Z" fill="#424242"/>
<path d="M93.8203 19.9527L92.5499 14.8856L90.646 15.3632L90.3754 14.2953L93.629 13.4849L95.1781 19.6901C95.367 20.4556 95.8924 20.6302 96.4666 20.486C96.7587 20.4141 97.063 20.2624 97.3898 20.0214L97.9547 20.9374C97.4449 21.2834 97.0887 21.5036 96.414 21.665C95.0842 21.9984 94.1615 21.3627 93.81 19.9624L93.8203 19.9527Z" fill="#424242"/>
<path d="M100.909 15.4069L98.4497 16.0592L98.1691 14.991L101.978 13.9859L103.481 19.6897L102.141 20.0428L100.919 15.4072L100.909 15.4069ZM99.7485 12.5037C99.6032 11.9695 99.9066 11.4877 100.461 11.343C101.015 11.1983 101.508 11.462 101.653 11.9962C101.798 12.5404 101.485 13.0019 100.941 13.147C100.397 13.292 99.8935 13.048 99.7485 12.5037Z" fill="#424242"/>
<path d="M105.552 16.0755C105.033 14.2205 106.135 12.7104 107.657 12.2923C109.351 11.8189 110.608 12.684 111.044 14.2567C111.117 14.5188 111.16 14.7901 111.175 14.9406L106.629 16.2054L106.365 15.2577L110.055 14.2293L109.885 14.5947C109.575 13.4758 108.887 13.0466 108 13.2921C107.062 13.5563 106.528 14.4319 106.883 15.7022C107.246 17.0227 108.226 17.43 109.405 17.1024C110 16.9388 110.438 16.6308 110.871 16.1926L111.562 16.892C111.066 17.4585 110.352 17.9489 109.525 18.1862C107.781 18.6682 106.11 17.9517 105.582 16.0664L105.552 16.0755Z" fill="#424242"/>
<path d="M111.838 11.2575L112.927 10.9375L113.274 11.7574L113.324 11.7588C113.704 11.039 114.212 10.4128 115.069 10.1564C116.38 9.7725 117.212 10.4358 117.632 11.8879L118.656 15.3876L117.325 15.7809L116.346 12.4526C116.081 11.5449 115.67 11.2134 114.904 11.4423C114.349 11.607 114.048 11.9889 113.68 12.6589L114.813 16.5118L113.482 16.9051L111.828 11.2472L111.838 11.2575Z" fill="#424242"/>
<path d="M120.914 12.2387L120.198 9.91806L118.694 10.3867L118.391 9.39792L119.937 8.86044L119.567 7.03952L120.667 6.6998L121.208 8.46544L123.771 7.67599L124.092 8.72527L121.529 9.51472L122.246 11.8254C122.53 12.7536 123.012 13.0671 123.96 12.7732C124.435 12.6262 124.79 12.416 125.118 12.1649L125.673 13.0506C125.224 13.3683 124.695 13.7038 123.968 13.9238C122.243 14.4563 121.364 13.6717 120.924 12.229L120.914 12.2387Z" fill="#424242"/>
<path d="M126.067 10.0304C125.477 8.20337 126.501 6.65107 128.005 6.16246C129.68 5.61858 130.968 6.4345 131.466 7.97884C131.548 8.24123 131.601 8.51278 131.617 8.66328L127.125 10.1197L126.82 9.19088L130.454 8.01089L130.294 8.3866C129.935 7.27624 129.235 6.88675 128.357 7.17258C127.428 7.47702 126.933 8.37368 127.339 9.62537C127.763 10.9276 128.753 11.2951 129.914 10.9171C130.499 10.7232 130.929 10.3949 131.341 9.94615L132.053 10.6161C131.577 11.2031 130.892 11.7244 130.074 11.9919C128.358 12.5447 126.656 11.8974 126.057 10.0401L126.067 10.0304Z" fill="#424242"/>
<path d="M133.564 9.88758L133.852 8.85516C134.667 9.06776 135.517 9.08126 136.426 8.76627C137.203 8.50767 137.465 8.08475 137.335 7.71102C137.215 7.34756 136.899 7.22875 135.503 7.40025C133.907 7.5962 133.065 7.29281 132.779 6.44456C132.445 5.47497 133.093 4.4725 134.658 3.94557C135.587 3.63113 136.546 3.70766 137.241 3.88695L136.913 4.89826C136.257 4.73007 135.537 4.74016 134.88 4.97209C134.153 5.22208 133.953 5.59669 134.073 5.94015C134.212 6.33415 134.662 6.33659 135.787 6.19762C137.703 5.98053 138.325 6.29783 138.63 7.18662C138.954 8.14593 138.294 9.23809 136.597 9.81141C135.557 10.1628 134.418 10.1113 133.564 9.87758L133.564 9.88758Z" fill="#424242"/>
</g>
<defs>
<clipPath id="clip0_210_4963">
<rect width="137.83" height="37.49" fill="white" transform="translate(1.03644) rotate(1.58418)"/>
</clipPath>
</defs>
</svg>
