<svg width="40" height="39" viewBox="0 0 40 39" fill="none" xmlns="http://www.w3.org/2000/svg">
<path d="M39.1816 19.4651C39.1816 30.0899 30.5685 38.703 19.9437 38.703C9.31892 38.703 0.705826 30.0899 0.705826 19.4651C0.705826 8.84027 9.31892 0.227173 19.9437 0.227173C30.5685 0.227173 39.1816 8.84027 39.1816 19.4651Z" fill="#4FB83E"/>
<path d="M19.9437 0.227173C9.3244 0.227173 0.705826 8.84575 0.705826 19.4651C0.705826 30.0844 9.3244 38.703 19.9437 38.703C30.563 38.703 39.1816 30.0844 39.1816 19.4651C39.1816 8.84575 30.563 0.227173 19.9437 0.227173ZM14.7302 27.7181L7.82384 20.8117C7.07357 20.0614 7.07357 18.8495 7.82384 18.0992C8.57412 17.3489 9.78611 17.3489 10.5364 18.0992L16.0961 23.6397L29.3318 10.404C30.0821 9.65374 31.2941 9.65374 32.0444 10.404C32.7946 11.1543 32.7946 12.3663 32.0444 13.1166L17.4428 27.7181C16.7118 28.4684 15.4805 28.4684 14.7302 27.7181Z" fill="#D6F9D0"/>
</svg>
