<svg width="33" height="33" viewBox="0 0 33 33" fill="none" xmlns="http://www.w3.org/2000/svg">
<g clip-path="url(#clip0_1126_1552)">
<path d="M16.1934 32.355C25.0299 32.355 32.1934 25.1915 32.1934 16.355C32.1934 7.51842 25.0299 0.35498 16.1934 0.35498C7.3568 0.35498 0.193359 7.51842 0.193359 16.355C0.193359 25.1915 7.3568 32.355 16.1934 32.355Z" fill="#525866"/>
<path d="M16.1939 6.61597L29.4113 16.3551L16.1939 26.0942L2.97656 16.3551L16.1939 6.61597Z" fill="#FFDA44"/>
<path d="M16.1941 21.9202C19.2677 21.9202 21.7593 19.4286 21.7593 16.355C21.7593 13.2814 19.2677 10.7898 16.1941 10.7898C13.1205 10.7898 10.6289 13.2814 10.6289 16.355C10.6289 19.4286 13.1205 21.9202 16.1941 21.9202Z" fill="#F0F0F0"/>
<path d="M13.4107 16.0068C12.4429 16.0068 11.509 16.154 10.6299 16.4271C10.6688 19.4671 13.1441 21.9199 16.1933 21.9199C18.0788 21.9199 19.7441 20.9813 20.7508 19.5469C19.0284 17.3908 16.3784 16.0068 13.4107 16.0068Z" fill="#1055A8"/>
<path d="M21.6552 17.4212C21.7222 17.076 21.7584 16.7198 21.7584 16.355C21.7584 13.2814 19.2668 10.7898 16.1932 10.7898C13.8999 10.7898 11.9311 12.1774 11.0791 14.1585C11.8322 14.0024 12.612 13.9202 13.4107 13.9202C16.643 13.9202 19.5671 15.2638 21.6552 17.4212Z" fill="#1055A8"/>
</g>
<defs>
<clipPath id="clip0_1126_1552">
<rect width="32" height="32" fill="white" transform="translate(0.193359 0.35498)"/>
</clipPath>
</defs>
</svg>
