<svg width="34" height="33" viewBox="0 0 34 33" fill="none" xmlns="http://www.w3.org/2000/svg">
<g clip-path="url(#clip0_1126_1594)">
<path d="M0.530273 16.3551C0.530273 18.3511 0.889326 20.2631 1.54522 22.0308L16.848 23.4497L32.1507 22.0308C32.8066 20.2631 33.1657 18.3511 33.1657 16.3551C33.1657 14.3591 32.8066 12.4472 32.1507 10.6794L16.848 9.2605L1.54522 10.6794C0.889326 12.4472 0.530273 14.3591 0.530273 16.3551H0.530273Z" fill="#FFDA44"/>
<path d="M32.1514 10.6794C29.8458 4.46563 23.8647 0.0373535 16.8486 0.0373535C9.83261 0.0373535 3.85147 4.46563 1.5459 10.6794H32.1514Z" fill="#D80027"/>
<path d="M1.5459 22.0308C3.85147 28.2445 9.83261 32.6728 16.8486 32.6728C23.8647 32.6728 29.8458 28.2445 32.1514 22.0308H1.5459Z" fill="#D80027"/>
</g>
<defs>
<clipPath id="clip0_1126_1594">
<rect width="32.6354" height="32.6354" fill="white" transform="translate(0.530273 0.0373535)"/>
</clipPath>
</defs>
</svg>
