<svg width="34" height="33" viewBox="0 0 34 33" fill="none" xmlns="http://www.w3.org/2000/svg">
<g clip-path="url(#clip0_1126_1582)">
<path d="M16.7142 32.6727C25.7262 32.6727 33.0319 25.3671 33.0319 16.355C33.0319 7.34303 25.7262 0.0373535 16.7142 0.0373535C7.70216 0.0373535 0.396484 7.34303 0.396484 16.355C0.396484 25.3671 7.70216 32.6727 16.7142 32.6727Z" fill="#F0F0F0"/>
<path d="M16.0049 16.3547H33.032C33.032 14.8819 32.8357 13.4551 32.4699 12.0979H16.0049V16.3547Z" fill="#D80027"/>
<path d="M16.0049 7.84153H30.637C29.6381 6.21155 28.3609 4.77081 26.8718 3.58472H16.0049V7.84153Z" fill="#D80027"/>
<path d="M16.7141 32.6728C20.5545 32.6728 24.0843 31.3455 26.8717 29.1255H6.55664C9.34403 31.3455 12.8738 32.6728 16.7141 32.6728Z" fill="#D80027"/>
<path d="M2.79186 24.8686H30.6372C31.4392 23.5601 32.0611 22.1297 32.4701 20.6118H0.958984C1.36801 22.1297 1.98993 23.5601 2.79186 24.8686Z" fill="#D80027"/>
<path d="M7.95515 2.58559H9.44216L8.05898 3.59047L8.58733 5.21644L7.20421 4.21156L5.8211 5.21644L6.27748 3.81178C5.05965 4.82621 3.99224 6.01473 3.11262 7.33901H3.58908L2.70862 7.97865C2.57145 8.20748 2.43989 8.43994 2.31381 8.67585L2.73425 9.96986L1.94985 9.39995C1.75487 9.81305 1.57652 10.2355 1.41621 10.6667L1.87942 12.0924H3.58908L2.2059 13.0973L2.73425 14.7233L1.35113 13.7184L0.522628 14.3204C0.439701 14.987 0.396484 15.6659 0.396484 16.355H16.7142C16.7142 7.34309 16.7142 6.28066 16.7142 0.0373535C13.4907 0.0373535 10.4857 0.972434 7.95515 2.58559ZM8.58733 14.7233L7.20421 13.7184L5.8211 14.7233L6.34945 13.0973L4.96627 12.0924H6.67593L7.20421 10.4665L7.7325 12.0924H9.44216L8.05898 13.0973L8.58733 14.7233ZM8.05898 8.34389L8.58733 9.96986L7.20421 8.96498L5.8211 9.96986L6.34945 8.34389L4.96627 7.33901H6.67593L7.20421 5.71304L7.7325 7.33901H9.44216L8.05898 8.34389ZM14.4404 14.7233L13.0573 13.7184L11.6742 14.7233L12.2025 13.0973L10.8193 12.0924H12.529L13.0573 10.4665L13.5856 12.0924H15.2952L13.9121 13.0973L14.4404 14.7233ZM13.9121 8.34389L14.4404 9.96986L13.0573 8.96498L11.6742 9.96986L12.2025 8.34389L10.8193 7.33901H12.529L13.0573 5.71304L13.5856 7.33901H15.2952L13.9121 8.34389ZM13.9121 3.59047L14.4404 5.21644L13.0573 4.21156L11.6742 5.21644L12.2025 3.59047L10.8193 2.58559H12.529L13.0573 0.959622L13.5856 2.58559H15.2952L13.9121 3.59047Z" fill="#0052B4"/>
</g>
<defs>
<clipPath id="clip0_1126_1582">
<rect width="32.6354" height="32.6354" fill="white" transform="translate(0.396484 0.0373535)"/>
</clipPath>
</defs>
</svg>
