<svg width="33" height="33" viewBox="0 0 33 33" fill="none" xmlns="http://www.w3.org/2000/svg">
<g clip-path="url(#clip0_1126_1571)">
<path d="M16.5794 32.6727C25.5914 32.6727 32.8971 25.3671 32.8971 16.355C32.8971 7.34303 25.5914 0.0373535 16.5794 0.0373535C7.5674 0.0373535 0.261719 7.34303 0.261719 16.355C0.261719 25.3671 7.5674 32.6727 16.5794 32.6727Z" fill="#F0F0F0"/>
<path d="M32.8969 16.355C32.8969 9.88571 29.132 4.29588 23.6738 1.65649V31.0535C29.132 28.4142 32.8969 22.8244 32.8969 16.355Z" fill="#D80027"/>
<path d="M0.261719 16.355C0.261719 22.8244 4.02658 28.4142 9.48478 31.0536V1.65649C4.02658 4.29588 0.261719 9.88571 0.261719 16.355Z" fill="#6DA544"/>
<path d="M12.3223 16.355C12.3223 18.7059 14.2281 20.6118 16.5791 20.6118C18.93 20.6118 20.8359 18.7059 20.8359 16.355V14.936H12.3223V16.355Z" fill="#6DA544"/>
<path d="M22.2548 13.5173H17.998C17.998 12.7337 17.3627 12.0984 16.5791 12.0984C15.7954 12.0984 15.1601 12.7337 15.1601 13.5173H10.9033C10.9033 14.301 11.5859 14.9363 12.3695 14.9363H12.3223C12.3223 15.72 12.9575 16.3552 13.7412 16.3552C13.7412 17.1389 14.3764 17.7741 15.1601 17.7741H17.998C18.7817 17.7741 19.4169 17.1389 19.4169 16.3552C20.2006 16.3552 20.8359 15.72 20.8359 14.9363H20.7886C21.5723 14.9363 22.2548 14.301 22.2548 13.5173Z" fill="#FF9811"/>
</g>
<defs>
<clipPath id="clip0_1126_1571">
<rect width="32.6354" height="32.6354" fill="white" transform="translate(0.261719 0.0373535)"/>
</clipPath>
</defs>
</svg>
