<svg width="33" height="33" viewBox="0 0 33 33" fill="none" xmlns="http://www.w3.org/2000/svg">
<path d="M11.8351 28.6956L9.94245 25.4903L6.23367 24.7264C5.98741 24.6757 5.78713 24.5441 5.63282 24.3314C5.47851 24.1187 5.41931 23.8853 5.45523 23.631L5.83763 19.9547L3.43298 17.16C3.26217 16.9853 3.17676 16.7651 3.17676 16.4997C3.17676 16.2342 3.26217 16.0094 3.43298 15.8252L5.83763 13.0517L5.45523 9.38541C5.41931 9.13056 5.47841 8.89655 5.63252 8.68337C5.78665 8.47018 5.98703 8.33322 6.23367 8.27248L9.94245 7.5261L11.8351 4.28956C11.9725 4.0697 12.1597 3.91665 12.3965 3.8304C12.6333 3.74415 12.872 3.7542 13.1127 3.86056L16.448 5.36443L19.7919 3.86056C20.0244 3.7616 20.2597 3.75113 20.4977 3.82913C20.7358 3.90711 20.9236 4.05603 21.061 4.27588L22.9759 7.5261L26.6624 8.27248C26.909 8.33322 27.1094 8.47018 27.2636 8.68337C27.4177 8.89655 27.4796 9.13056 27.4494 9.38541L27.0585 13.0517L29.4806 15.8252C29.6397 16.0094 29.7193 16.2342 29.7193 16.4997C29.7193 16.7651 29.6382 16.9865 29.4759 17.1637L27.0585 19.9568L27.4494 23.631C27.4796 23.8853 27.4176 24.1187 27.2633 24.3314C27.109 24.5441 26.9087 24.6757 26.6624 24.7264L22.9759 25.4903L21.061 28.7093C20.9236 28.9409 20.7358 29.0956 20.4977 29.1736C20.2597 29.2516 20.0244 29.2411 19.7919 29.1422L16.448 27.6383L13.1127 29.1422C12.8745 29.2411 12.6364 29.2493 12.3983 29.1668C12.1603 29.0842 11.9725 28.9272 11.8351 28.6956Z" fill="#8C35D3"/>
<path d="M13.3968 15.6067C12.7989 15.6067 12.2906 15.3966 11.872 14.9763C11.4534 14.5561 11.2441 14.0467 11.2441 13.4482C11.2441 12.8497 11.4538 12.3414 11.8731 11.9234C12.2925 11.5054 12.8011 11.2964 13.3991 11.2964C13.997 11.2964 14.5066 11.5057 14.928 11.9243C15.3493 12.343 15.56 12.8507 15.56 13.4477C15.56 14.048 15.349 14.5579 14.9269 14.9774C14.5048 15.3969 13.9947 15.6067 13.3968 15.6067ZM13.3977 14.5547C13.7061 14.5547 13.9682 14.4481 14.1841 14.2349C14.4001 14.0217 14.508 13.7596 14.508 13.4487C14.508 13.1415 14.4002 12.8813 14.1846 12.6681C13.969 12.4549 13.7072 12.3484 13.3992 12.3484C13.0912 12.3484 12.8304 12.4551 12.6167 12.6685C12.403 12.882 12.2961 13.1412 12.2961 13.4461C12.2961 13.757 12.4032 14.0195 12.6174 14.2336C12.8316 14.4477 13.0917 14.5547 13.3977 14.5547ZM19.5019 21.7054C18.9015 21.7054 18.3916 21.4957 17.9721 21.0764C17.5526 20.657 17.3428 20.1484 17.3428 19.5505C17.3428 18.9525 17.553 18.4429 17.9732 18.0216C18.3935 17.6002 18.9028 17.3895 19.5013 17.3895C20.0998 17.3895 20.6081 17.6006 21.0261 18.0227C21.4441 18.4448 21.6532 18.9548 21.6532 19.5527C21.6532 20.1506 21.4438 20.6589 21.0252 21.0775C20.6066 21.4961 20.0988 21.7054 19.5019 21.7054ZM19.5008 20.6534C19.8081 20.6534 20.0683 20.5464 20.2814 20.3325C20.4946 20.1185 20.6012 19.8586 20.6012 19.5529C20.6012 19.2449 20.4945 18.9827 20.281 18.7662C20.0676 18.5497 19.8084 18.4415 19.5035 18.4415C19.1925 18.4415 18.93 18.549 18.7159 18.7641C18.5018 18.9792 18.3948 19.2409 18.3948 19.5492C18.3948 19.8575 18.5014 20.1186 18.7146 20.3326C18.9279 20.5465 19.1899 20.6534 19.5008 20.6534ZM11.6151 21.34C11.5099 21.2329 11.4573 21.1098 11.4573 20.9704C11.4573 20.8311 11.5113 20.7074 11.6193 20.5994L20.5444 11.6743C20.6469 11.5719 20.7678 11.5192 20.9071 11.5165C21.0464 11.5137 21.1696 11.5658 21.2767 11.6729C21.3837 11.7799 21.4372 11.9031 21.4372 12.0424C21.4372 12.1818 21.3837 12.3031 21.2767 12.4065L12.3487 21.34C12.2427 21.4415 12.1202 21.4936 11.9813 21.4964C11.8424 21.4992 11.7203 21.447 11.6151 21.34Z" fill="white"/>
</svg>
