<svg width="38" height="38" viewBox="0 0 38 38" fill="none" xmlns="http://www.w3.org/2000/svg">
<path d="M13.4188 33.2006L11.1913 29.4282L6.82629 28.5291C6.53646 28.4695 6.30074 28.3145 6.11913 28.0642C5.93751 27.8139 5.86784 27.5391 5.91012 27.2399L6.36017 22.9132L3.53007 19.624C3.32903 19.4183 3.22852 19.1593 3.22852 18.8468C3.22852 18.5344 3.32903 18.2698 3.53007 18.053L6.36017 14.7889L5.91012 10.4738C5.86784 10.1739 5.93739 9.89849 6.11877 9.64759C6.30018 9.39669 6.53602 9.23549 6.82629 9.164L11.1913 8.28556L13.4188 4.47639C13.5805 4.21763 13.8008 4.0375 14.0795 3.93599C14.3582 3.83447 14.6392 3.8463 14.9224 3.97148L18.8479 5.74143L22.7834 3.97148C23.057 3.85502 23.3339 3.84269 23.6141 3.93449C23.8943 4.02627 24.1153 4.20153 24.277 4.46029L26.5307 8.28556L30.8695 9.164C31.1598 9.23549 31.3956 9.39669 31.577 9.64759C31.7584 9.89849 31.8313 10.1739 31.7957 10.4738L31.3356 14.7889L34.1863 18.053C34.3736 18.2698 34.4672 18.5344 34.4672 18.8468C34.4672 19.1593 34.3717 19.4198 34.1808 19.6284L31.3356 22.9156L31.7957 27.2399C31.8313 27.5391 31.7583 27.8139 31.5767 28.0642C31.395 28.3145 31.1593 28.4695 30.8695 28.5291L26.5307 29.4282L24.277 33.2168C24.1153 33.4893 23.8943 33.6714 23.6141 33.7632C23.3339 33.855 23.057 33.8426 22.7834 33.7262L18.8479 31.9562L14.9224 33.7262C14.6421 33.8426 14.3618 33.8523 14.0817 33.7551C13.8015 33.658 13.5805 33.4731 13.4188 33.2006Z" fill="#E63030"/>
<path d="M15.2552 17.7958C14.5515 17.7958 13.9533 17.5485 13.4607 17.0539C12.968 16.5593 12.7217 15.9598 12.7217 15.2554C12.7217 14.551 12.9684 13.9529 13.462 13.4609C13.9555 12.9689 14.5542 12.7229 15.2579 12.7229C15.9616 12.7229 16.5614 12.9692 17.0573 13.4619C17.5532 13.9546 17.8011 14.5523 17.8011 15.2548C17.8011 15.9614 17.5528 16.5615 17.056 17.0552C16.5592 17.549 15.959 17.7958 15.2552 17.7958ZM15.2563 16.5577C15.6192 16.5577 15.9277 16.4323 16.1818 16.1813C16.436 15.9304 16.5631 15.6219 16.5631 15.256C16.5631 14.8944 16.4362 14.5882 16.1824 14.3373C15.9287 14.0864 15.6205 13.961 15.258 13.961C14.8956 13.961 14.5885 14.0866 14.337 14.3378C14.0855 14.589 13.9598 14.8941 13.9598 15.2529C13.9598 15.6189 14.0858 15.9278 14.3379 16.1798C14.59 16.4318 14.8962 16.5577 15.2563 16.5577ZM22.4405 24.9736C21.7339 24.9736 21.1337 24.7268 20.64 24.2333C20.1463 23.7397 19.8994 23.1411 19.8994 22.4374C19.8994 21.7337 20.1467 21.1339 20.6413 20.638C21.1359 20.1421 21.7354 19.8941 22.4398 19.8941C23.1442 19.8941 23.7424 20.1425 24.2344 20.6393C24.7264 21.1361 24.9724 21.7363 24.9724 22.44C24.9724 23.1437 24.726 23.7419 24.2333 24.2346C23.7406 24.7272 23.143 24.9736 22.4405 24.9736ZM22.4392 23.7355C22.8008 23.7355 23.1071 23.6096 23.3579 23.3577C23.6088 23.1059 23.7343 22.8001 23.7343 22.4403C23.7343 22.0778 23.6087 21.7691 23.3575 21.5144C23.1062 21.2596 22.8012 21.1322 22.4423 21.1322C22.0764 21.1322 21.7674 21.2588 21.5155 21.5119C21.2635 21.765 21.1375 22.073 21.1375 22.4359C21.1375 22.7987 21.263 23.1061 21.5139 23.3578C21.7649 23.6096 22.0733 23.7355 22.4392 23.7355ZM13.1583 24.5435C13.0345 24.4175 12.9726 24.2725 12.9726 24.1086C12.9726 23.9446 13.0361 23.799 13.1632 23.6719L23.6674 13.1677C23.788 13.0471 23.9303 12.9852 24.0943 12.9819C24.2583 12.9787 24.4033 13.04 24.5293 13.166C24.6552 13.292 24.7182 13.437 24.7182 13.601C24.7182 13.765 24.6552 13.9078 24.5293 14.0294L14.0217 24.5435C13.8969 24.663 13.7528 24.7243 13.5892 24.7276C13.4257 24.7309 13.2821 24.6695 13.1583 24.5435Z" fill="white"/>
</svg>
