<svg width="17" height="16" viewBox="0 0 17 16" fill="none" xmlns="http://www.w3.org/2000/svg">
<path d="M8.13086 0C5.95609 0 5.68505 0.0105013 4.83395 0.0465058C3.97934 0.0885111 3.40127 0.221028 2.8912 0.419052C2.35737 0.620588 1.87391 0.936125 1.47453 1.34367C1.06585 1.74212 0.750135 2.22584 0.549912 2.76035C0.351887 3.27041 0.21937 3.84848 0.177365 4.70309C0.13886 5.55469 0.130859 5.82523 0.130859 8C0.130859 10.1748 0.141361 10.4458 0.177365 11.2969C0.21937 12.149 0.351887 12.7296 0.549912 13.2397C0.751447 13.7735 1.06698 14.257 1.47453 14.6563C1.87298 15.065 2.3567 15.3807 2.8912 15.5809C3.40127 15.7765 3.98184 15.9115 4.83395 15.9535C5.68555 15.992 5.95609 16 8.13086 16C10.3056 16 10.5767 15.9895 11.4278 15.9535C12.2799 15.9115 12.8605 15.776 13.3705 15.5809C13.9044 15.3794 14.3878 15.0639 14.7872 14.6563C15.1964 14.2583 15.5122 13.7745 15.7118 13.2397C15.9073 12.7296 16.0423 12.149 16.0844 11.2969C16.1229 10.4453 16.1309 10.1748 16.1309 8C16.1309 5.82523 16.1204 5.55419 16.0844 4.70309C16.0423 3.85098 15.9068 3.26741 15.7118 2.76035C15.5103 2.22651 15.1947 1.74305 14.7872 1.34367C14.3892 0.934462 13.9053 0.618667 13.3705 0.419052C12.8605 0.221028 12.2799 0.0885111 11.4278 0.0465058C10.5762 0.008001 10.3056 0 8.13086 0ZM8.13086 1.44018C10.2666 1.44018 10.5217 1.45068 11.3658 1.48669C12.1444 1.52319 12.5684 1.65321 12.8499 1.76322C13.198 1.8917 13.513 2.09619 13.7721 2.3618C14.0372 2.61974 14.2409 2.93404 14.3681 3.28141C14.4782 3.56295 14.6082 3.987 14.6447 4.7656C14.6807 5.6097 14.6912 5.86523 14.6912 8.0005C14.6912 10.1358 14.6807 10.3913 14.6417 11.2354C14.5997 12.014 14.4697 12.4381 14.3601 12.7196C14.2086 13.0951 14.0396 13.3577 13.7606 13.6417C13.5007 13.9056 13.1858 14.1092 12.8384 14.2378C12.5604 14.3478 12.1304 14.4778 11.3488 14.5143C10.5002 14.5503 10.2501 14.5608 8.10886 14.5608C5.96759 14.5608 5.71806 14.5503 4.86845 14.5113C4.08985 14.4693 3.6603 14.3393 3.37877 14.2298C2.99872 14.0783 2.73819 13.9092 2.45915 13.6302C2.17762 13.3487 1.99859 13.0806 1.86058 12.7081C1.74856 12.4301 1.62055 12 1.57904 11.2184C1.55054 10.3798 1.53704 10.1198 1.53704 7.9885C1.53704 5.85823 1.55054 5.5977 1.57904 4.74859C1.62055 3.967 1.74856 3.53794 1.86058 3.25891C1.99859 2.87836 2.17812 2.61833 2.45915 2.33679C2.73769 2.05826 2.99872 1.87823 3.37877 1.73722C3.6603 1.6277 4.07935 1.49769 4.86095 1.45868C5.70956 1.42818 5.95959 1.41718 8.09786 1.41718L8.13086 1.44018ZM8.13086 3.89399C7.59146 3.89379 7.05732 3.99989 6.55894 4.20621C6.06057 4.41254 5.60773 4.71505 5.22632 5.09646C4.84491 5.47787 4.5424 5.93071 4.33607 6.42908C4.12975 6.92746 4.02365 7.4616 4.02385 8.001C4.02365 8.5404 4.12975 9.07454 4.33607 9.57292C4.5424 10.0713 4.84491 10.5241 5.22632 10.9055C5.60773 11.2869 6.06057 11.5895 6.55894 11.7958C7.05732 12.0021 7.59146 12.1082 8.13086 12.108C8.67026 12.1082 9.2044 12.0021 9.70278 11.7958C10.2012 11.5895 10.654 11.2869 11.0354 10.9055C11.4168 10.5241 11.7193 10.0713 11.9256 9.57292C12.132 9.07454 12.2381 8.5404 12.2379 8.001C12.2381 7.4616 12.132 6.92746 11.9256 6.42908C11.7193 5.93071 11.4168 5.47787 11.0354 5.09646C10.654 4.71505 10.2012 4.41254 9.70278 4.20621C9.2044 3.99989 8.67026 3.89379 8.13086 3.89399ZM8.13086 10.6678C6.65668 10.6678 5.46403 9.47518 5.46403 8.001C5.46403 6.52682 6.65668 5.33417 8.13086 5.33417C9.60504 5.33417 10.7977 6.52682 10.7977 8.001C10.7977 9.47518 9.60504 10.6678 8.13086 10.6678ZM13.3635 3.72997C13.3632 3.98483 13.2618 4.22917 13.0815 4.40929C12.9012 4.58941 12.6568 4.69059 12.4019 4.69059C12.2759 4.69059 12.1511 4.66577 12.0347 4.61754C11.9182 4.56931 11.8124 4.49863 11.7233 4.40952C11.6342 4.32041 11.5635 4.21462 11.5153 4.0982C11.4671 3.98177 11.4423 3.85699 11.4423 3.73097C11.4423 3.60495 11.4671 3.48016 11.5153 3.36374C11.5635 3.24731 11.6342 3.14152 11.7233 3.05241C11.8124 2.9633 11.9182 2.89262 12.0347 2.84439C12.1511 2.79617 12.2759 2.77135 12.4019 2.77135C12.9305 2.77135 13.3635 3.2014 13.3635 3.72997Z" fill="#FCFCFC"/>
</svg>
