<svg width="40" height="36" viewBox="0 0 40 36" fill="none" xmlns="http://www.w3.org/2000/svg">
<rect width="40" height="36" rx="3.379" fill="#F8F8F8"/>
<path d="M14.2931 17.6644L5.60663 27.6328C4.8012 28.5571 5.45767 29.9999 6.68366 29.9999H32.5471C33.7731 29.9999 34.4296 28.5571 33.6241 27.6328L29.7894 23.2322C29.2201 22.5788 28.2047 22.5788 27.6354 23.2322L25.5442 25.6321C24.9748 26.2854 23.9595 26.2855 23.3901 25.6321L16.4471 17.6644C15.8777 17.011 14.8624 17.011 14.2931 17.6644Z" stroke="#B1B1B1" stroke-width="0.714286"/>
<rect x="4" y="5" width="9.72082" height="9.56404" rx="2.20663" fill="#20A343"/>
<rect x="14.9756" y="5" width="9.72082" height="9.56404" rx="2.20663" fill="#4F52F2"/>
<rect x="25.9502" y="5" width="9.72082" height="9.56404" rx="2.20663" fill="#4FF2EA"/>
</svg>
