<svg width="120" height="35" viewBox="0 0 120 35" fill="none" xmlns="http://www.w3.org/2000/svg">
<path d="M115.561 34.6683H4.59773C2.15764 34.6683 0.15918 32.7172 0.15918 30.3348V4.33356C0.15918 1.9512 2.15764 2.06046e-05 4.59773 2.06046e-05H115.561C118.001 2.06046e-05 120 1.9512 120 4.33356V30.3348C120 32.7172 118.001 34.6683 115.561 34.6683Z" fill="black"/>
<path d="M115.561 0.694468C117.616 0.694468 119.289 2.32713 119.289 4.33356V30.3348C119.289 32.3412 117.616 33.9739 115.561 33.9739H4.59773C2.54268 33.9739 0.870456 32.3412 0.870456 30.3348V4.33356C0.870456 2.32713 2.54268 0.694468 4.59773 0.694468H115.561ZM115.561 2.06046e-05H4.59773C2.15764 2.06046e-05 0.15918 1.9512 0.15918 4.33356V30.3348C0.15918 32.7172 2.15764 34.6683 4.59773 34.6683H115.561C118.001 34.6683 120 32.7172 120 30.3348V4.33356C120 1.9512 118.001 2.06046e-05 115.561 2.06046e-05Z" fill="#A6A6A6"/>
<path d="M42.2521 8.87834C42.2521 9.60204 42.0302 10.1817 41.593 10.6139C41.0903 11.1264 40.4356 11.3842 39.6334 11.3842C38.8666 11.3842 38.2119 11.122 37.6749 10.6053C37.1367 10.0809 36.8682 9.43737 36.8682 8.66708C36.8682 7.89679 37.1367 7.25326 37.6749 6.73324C38.2119 6.21213 38.8666 5.94995 39.6334 5.94995C40.0151 5.94995 40.3791 6.02687 40.7264 6.16988C41.0726 6.31397 41.3544 6.50898 41.5586 6.74949L41.0948 7.20668C40.7386 6.79608 40.2537 6.59348 39.6334 6.59348C39.0741 6.59348 38.5892 6.78416 38.1775 7.16876C37.7703 7.55444 37.5661 8.05388 37.5661 8.66708C37.5661 9.28028 37.7703 9.78405 38.1775 10.1697C38.5892 10.55 39.0741 10.745 39.6334 10.745C40.227 10.745 40.7264 10.55 41.1203 10.1654C41.3799 9.9108 41.5275 9.55979 41.5664 9.11127H39.6334V8.48507H42.2122C42.2432 8.62049 42.2521 8.75158 42.2521 8.87834Z" fill="white" stroke="white" stroke-width="0.0940158" stroke-miterlimit="10"/>
<path d="M46.3434 6.7072H43.9211V8.35395H46.1049V8.98015H43.9211V10.6269H46.3434V11.265H43.2354V6.06909H46.3434V6.7072Z" fill="white" stroke="white" stroke-width="0.0940158" stroke-miterlimit="10"/>
<path d="M49.2311 11.265H48.5454V6.7072H47.0596V6.06909H50.718V6.7072H49.2311V11.265Z" fill="white" stroke="white" stroke-width="0.0940158" stroke-miterlimit="10"/>
<path d="M53.3643 11.265V6.06909H54.0489V11.265H53.3643Z" fill="white" stroke="white" stroke-width="0.0940158" stroke-miterlimit="10"/>
<path d="M57.0846 11.265H56.4044V6.7072H54.9131V6.06909H58.576V6.7072H57.0846V11.265Z" fill="white" stroke="white" stroke-width="0.0940158" stroke-miterlimit="10"/>
<path d="M65.5029 10.5966C64.9781 11.122 64.3278 11.3842 63.5522 11.3842C62.7721 11.3842 62.1219 11.122 61.597 10.5966C61.0733 10.0722 60.8125 9.4287 60.8125 8.66708C60.8125 7.90546 61.0733 7.26193 61.597 6.73757C62.1219 6.21213 62.7721 5.94995 63.5522 5.94995C64.3234 5.94995 64.9736 6.21213 65.4985 6.74191C66.0267 7.2706 66.2875 7.90979 66.2875 8.66708C66.2875 9.4287 66.0267 10.0722 65.5029 10.5966ZM62.1041 10.1611C62.4991 10.55 62.9796 10.745 63.5522 10.745C64.1203 10.745 64.6052 10.55 64.9958 10.1611C65.3898 9.77213 65.5895 9.27269 65.5895 8.66708C65.5895 8.06147 65.3898 7.56203 64.9958 7.17309C64.6052 6.78416 64.1203 6.58915 63.5522 6.58915C62.9796 6.58915 62.4991 6.78416 62.1041 7.17309C61.7102 7.56203 61.5105 8.06147 61.5105 8.66708C61.5105 9.27269 61.7102 9.77213 62.1041 10.1611Z" fill="white" stroke="white" stroke-width="0.0940158" stroke-miterlimit="10"/>
<path d="M67.248 11.265V6.06909H68.0803L70.6679 10.1101H70.6979L70.6679 9.11123V6.06909H71.3526V11.265H70.638L67.9283 7.02464H67.8983L67.9283 8.02785V11.265H67.248Z" fill="white" stroke="white" stroke-width="0.0940158" stroke-miterlimit="10"/>
<path d="M60.6433 18.8531C58.5583 18.8531 56.855 20.4023 56.855 22.5399C56.855 24.66 58.5583 26.2255 60.6433 26.2255C62.7327 26.2255 64.436 24.66 64.436 22.5399C64.436 20.4023 62.7327 18.8531 60.6433 18.8531ZM60.6433 24.7738C59.4993 24.7738 58.515 23.8518 58.515 22.5399C58.515 21.2106 59.4993 20.3048 60.6433 20.3048C61.7873 20.3048 62.776 21.2106 62.776 22.5399C62.776 23.8518 61.7873 24.7738 60.6433 24.7738ZM52.3776 18.8531C50.2882 18.8531 48.5893 20.4023 48.5893 22.5399C48.5893 24.66 50.2882 26.2255 52.3776 26.2255C54.4659 26.2255 56.1659 24.66 56.1659 22.5399C56.1659 20.4023 54.4659 18.8531 52.3776 18.8531ZM52.3776 24.7738C51.2325 24.7738 50.2449 23.8518 50.2449 22.5399C50.2449 21.2106 51.2325 20.3048 52.3776 20.3048C53.5216 20.3048 54.5059 21.2106 54.5059 22.5399C54.5059 23.8518 53.5216 24.7738 52.3776 24.7738ZM42.5418 19.9831V21.5497H46.3734C46.2613 22.425 45.9617 23.0686 45.5023 23.5171C44.9431 24.0588 44.072 24.66 42.5418 24.66C40.1838 24.66 38.3374 22.802 38.3374 20.4999C38.3374 18.1977 40.1838 16.3397 42.5418 16.3397C43.8168 16.3397 44.7444 16.8261 45.4291 17.4566L46.5598 16.3527C45.6022 15.4599 44.3283 14.7742 42.5418 14.7742C39.3083 14.7742 36.5908 17.3429 36.5908 20.4999C36.5908 23.6568 39.3083 26.2255 42.5418 26.2255C44.2895 26.2255 45.6022 25.6665 46.6341 24.6178C47.6916 23.5853 48.0212 22.1336 48.0212 20.9614C48.0212 20.5974 47.9901 20.2626 47.9346 19.9831H42.5418ZM82.7617 21.1976C82.4499 20.3731 81.4878 18.8531 79.5282 18.8531C77.5863 18.8531 75.9696 20.3471 75.9696 22.5399C75.9696 24.6048 77.5697 26.2255 79.7146 26.2255C81.449 26.2255 82.4499 25.1931 82.8615 24.5918L81.5744 23.7543C81.1449 24.3675 80.5602 24.7738 79.7146 24.7738C78.8746 24.7738 78.2721 24.3979 77.8859 23.6568L82.9359 21.6168L82.7617 21.1976ZM77.613 22.425C77.5697 21.0036 78.7437 20.2756 79.5848 20.2756C80.2439 20.2756 80.8032 20.5974 80.9896 21.0578L77.613 22.425ZM73.5084 26.0013H75.1684V15.1674H73.5084V26.0013ZM70.7898 19.6743H70.7343C70.3615 19.2431 69.6502 18.8531 68.7492 18.8531C66.8584 18.8531 65.1296 20.4739 65.1296 22.5518C65.1296 24.6178 66.8584 26.2255 68.7492 26.2255C69.6502 26.2255 70.3615 25.8323 70.7343 25.3881H70.7898V25.9168C70.7898 27.3263 70.0186 28.0835 68.7747 28.0835C67.7605 28.0835 67.1313 27.3685 66.8717 26.7672L65.428 27.3555C65.8442 28.3327 66.946 29.5353 68.7747 29.5353C70.721 29.5353 72.3633 28.4172 72.3633 25.6968V19.0774H70.7898V19.6743ZM68.8912 24.7738C67.7472 24.7738 66.7896 23.8388 66.7896 22.5518C66.7896 21.2528 67.7472 20.3048 68.8912 20.3048C70.0186 20.3048 70.9074 21.2528 70.9074 22.5518C70.9074 23.8388 70.0186 24.7738 68.8912 24.7738ZM90.5336 15.1674H86.5633V26.0013H88.2189V21.8963H90.5336C92.3722 21.8963 94.1754 20.5974 94.1754 18.5313C94.1754 16.4664 92.3678 15.1674 90.5336 15.1674ZM90.5768 20.3893H88.2189V16.6744H90.5768C91.813 16.6744 92.5187 17.6766 92.5187 18.5313C92.5187 19.3699 91.813 20.3893 90.5768 20.3893ZM100.811 18.8325C99.6148 18.8325 98.3709 19.3482 97.8594 20.4912L99.3285 21.0925C99.6448 20.4912 100.226 20.2962 100.841 20.2962C101.7 20.2962 102.571 20.7999 102.584 21.6894V21.8032C102.285 21.6342 101.643 21.3839 100.854 21.3839C99.272 21.3839 97.6596 22.2344 97.6596 23.8215C97.6596 25.2732 98.9557 26.2082 100.413 26.2082C101.527 26.2082 102.141 25.7174 102.528 25.1465H102.584V25.9839H104.183V21.8281C104.183 19.9072 102.714 18.8325 100.811 18.8325ZM100.611 24.7695C100.07 24.7695 99.3152 24.5073 99.3152 23.8518C99.3152 23.0133 100.256 22.6915 101.071 22.6915C101.8 22.6915 102.141 22.8486 102.584 23.0556C102.454 24.0588 101.57 24.7695 100.611 24.7695ZM110.009 19.0698L108.106 23.7663H108.049L106.082 19.0698H104.296L107.252 25.6329L105.566 29.285H107.296L111.851 19.0698H110.009ZM95.0853 26.0013H96.7453V15.1674H95.0853V26.0013Z" fill="white"/>
<path d="M9.42242 6.5339C9.16165 6.80041 9.01074 7.21535 9.01074 7.75271V26.92C9.01074 27.4573 9.16165 27.8722 9.42242 28.1388L9.48678 28.1973L20.4877 17.4609V17.2074L9.48678 6.47107L9.42242 6.5339Z" fill="url(#paint0_linear_818_16175)"/>
<path d="M24.1502 21.0415L20.4873 17.4609V17.2074L24.1547 13.6268L24.2368 13.6734L28.5799 16.0861C29.8193 16.7708 29.8193 17.8975 28.5799 18.5866L24.2368 20.9949L24.1502 21.0415Z" fill="url(#paint1_linear_818_16175)"/>
<path d="M24.2376 20.9948L20.4881 17.3341L9.42285 28.1387C9.83453 28.5612 10.5059 28.6121 11.2693 28.1896L24.2376 20.9948Z" fill="url(#paint2_linear_818_16175)"/>
<path d="M24.2376 13.6734L11.2693 6.47859C10.5059 6.06041 9.83453 6.11132 9.42285 6.53384L20.4881 17.3341L24.2376 13.6734Z" fill="url(#paint3_linear_818_16175)"/>
<defs>
<linearGradient id="paint0_linear_818_16175" x1="19.511" y1="27.1196" x2="4.96969" y2="12.2259" gradientUnits="userSpaceOnUse">
<stop stop-color="#00A0FF"/>
<stop offset="0.0066" stop-color="#00A1FF"/>
<stop offset="0.2601" stop-color="#00BEFF"/>
<stop offset="0.5122" stop-color="#00D2FF"/>
<stop offset="0.7604" stop-color="#00DFFF"/>
<stop offset="1" stop-color="#00E3FF"/>
</linearGradient>
<linearGradient id="paint1_linear_818_16175" x1="30.1939" y1="17.3329" x2="8.71406" y2="17.3329" gradientUnits="userSpaceOnUse">
<stop stop-color="#FFE000"/>
<stop offset="0.4087" stop-color="#FFBD00"/>
<stop offset="0.7754" stop-color="#FFA500"/>
<stop offset="1" stop-color="#FF9C00"/>
</linearGradient>
<linearGradient id="paint2_linear_818_16175" x1="22.1988" y1="15.344" x2="2.47962" y2="-4.85292" gradientUnits="userSpaceOnUse">
<stop stop-color="#FF3A44"/>
<stop offset="1" stop-color="#C31162"/>
</linearGradient>
<linearGradient id="paint3_linear_818_16175" x1="6.63749" y1="34.5156" x2="15.443" y2="25.4968" gradientUnits="userSpaceOnUse">
<stop stop-color="#32A071"/>
<stop offset="0.0685" stop-color="#2DA771"/>
<stop offset="0.4762" stop-color="#15CF74"/>
<stop offset="0.8009" stop-color="#06E775"/>
<stop offset="1" stop-color="#00F076"/>
</linearGradient>
</defs>
</svg>
