<svg width="206" height="48" viewBox="0 0 206 48" fill="none" xmlns="http://www.w3.org/2000/svg">
<path d="M85.1901 17.898C85.1901 13.2614 81.4473 9.51837 76.8108 9.51837H65.7852V37.303H69.9748V26.2773H74.8263L81.221 37.303H85.8517L79.0159 25.8362C82.4167 24.7898 85.1901 22.0742 85.1901 17.898ZM69.9748 22.308V13.4876H76.8108C78.9791 13.4876 81.0006 15.474 81.0006 17.898C81.0006 20.3211 78.9797 22.308 76.8108 22.308H69.9748ZM95.3337 17.2364C90.2957 17.2364 86.0721 21.3582 86.0721 27.3799C86.0721 33.581 90.5047 37.5233 95.5543 37.5233C99.7495 37.5233 102.675 35.3297 104.154 31.5697H99.9645C98.6694 33.334 97.0574 33.7748 95.5543 33.7748C92.6752 33.7748 90.4963 31.6151 90.2619 29.144H104.375C104.497 28.5215 104.595 27.864 104.595 27.3799C104.595 21.2893 100.307 17.2364 95.3337 17.2364ZM90.2619 25.8362C90.7039 23.1276 92.5284 20.9849 95.3337 20.9849C98.5402 20.9849 100.391 23.0528 100.846 25.8362H90.2619ZM121.354 19.4415C120.155 18.1512 118.144 17.2364 115.841 17.2364C110.757 17.2364 106.359 21.2128 106.359 27.3799C106.359 33.5806 110.792 37.5233 115.841 37.5233C118.466 37.5233 120.38 36.6042 121.574 35.3184L122.456 37.303H125.323V9.51837H121.354V19.4415ZM116.061 33.7748C113.011 33.7748 110.328 31.1517 110.328 27.3799C110.328 23.6008 113.02 20.9849 116.061 20.9849C119.127 20.9849 121.795 23.6232 121.795 27.3799C121.795 31.1478 119.115 33.7748 116.061 33.7748ZM131.497 9.51837C130.137 9.51837 129.071 10.5836 129.071 11.944C129.071 13.3044 130.137 14.3698 131.497 14.3698C132.858 14.3698 133.923 13.3044 133.923 11.944C133.923 10.5843 132.857 9.51837 131.497 9.51837ZM129.513 37.303H133.482V17.4569H129.513V37.303ZM157.076 17.898C157.076 13.2614 153.333 9.51837 148.697 9.51837H137.671V37.303H141.861V26.2773H146.712L153.107 37.303H157.738L150.902 25.8362C154.303 24.7898 157.076 22.0742 157.076 17.898ZM141.861 22.308V13.4876H148.697C150.865 13.4876 152.887 15.474 152.887 17.898C152.887 20.3211 150.866 22.308 148.697 22.308H141.861ZM167.22 17.2364C162.182 17.2364 157.958 21.3582 157.958 27.3799C157.958 33.581 162.391 37.5233 167.44 37.5233C171.635 37.5233 174.561 35.3297 176.04 31.5697H171.85C170.555 33.334 168.943 33.7748 167.44 33.7748C164.561 33.7748 162.382 31.6151 162.148 29.144H176.261C176.383 28.5215 176.481 27.864 176.481 27.3799C176.481 21.2893 172.192 17.2364 167.22 17.2364ZM162.148 25.8362C162.59 23.1276 164.414 20.9849 167.22 20.9849C170.426 20.9849 172.277 23.0528 172.733 25.8362H162.148ZM193.24 19.4415C192.04 18.1512 190.03 17.2364 187.727 17.2364C182.643 17.2364 178.245 21.2128 178.245 27.3799C178.245 33.5806 182.678 37.5233 187.727 37.5233C190.352 37.5233 192.267 36.6042 193.46 35.3184L194.342 37.303H197.209V9.51837H193.24V19.4415ZM187.947 33.7748C184.897 33.7748 182.214 31.1517 182.214 27.3799C182.214 23.6008 184.905 20.9849 187.947 20.9849C191.013 20.9849 193.681 23.6232 193.681 27.3799C193.681 31.1478 191.001 33.7748 187.947 33.7748ZM201.398 37.303H205.368V17.4569H201.398V37.303ZM203.383 14.3698C204.744 14.3698 205.809 13.3044 205.809 11.944C205.809 10.5843 204.743 9.51837 203.383 9.51837C202.023 9.51837 200.957 10.5836 200.957 11.944C200.957 13.3044 202.023 14.3698 203.383 14.3698Z" fill="#1E1E1E"/>
<path d="M39.1597 29.8938C39.16 29.8938 39.1601 29.8938 39.1601 29.8938C43.8838 27.09 47.042 21.9588 47.042 16.0646C47.042 7.18523 39.8533 0 30.9696 0C22.6214 0 15.8146 6.33519 14.9837 14.3835C10.0864 12.8746 6.51714 8.30887 6.51714 2.92531V0.367034H0.747088V2.92531C0.747088 8.72164 3.52927 13.8958 7.87731 17.1502C7.87709 17.1503 7.8769 17.1504 7.87669 17.1505C3.12307 19.9754 0 25.1218 0 30.9774C0 39.8558 7.1898 47.042 16.0725 47.042C24.4001 47.042 31.2238 40.7262 32.0583 32.6604C36.9514 34.1719 40.5166 38.7356 40.5166 44.1162V46.6747H46.2867V44.1162C46.2867 38.4168 43.5831 33.2063 39.1597 29.8938ZM16.0725 41.2748C10.3919 41.2748 5.77005 36.6553 5.77005 30.9774C5.77005 25.6964 9.76753 21.3318 14.8971 20.747V32.1286H20.6671V16.0646C20.6671 10.3868 25.289 5.76722 30.9696 5.76722C36.6502 5.76722 41.272 10.3862 41.272 16.0646C41.272 21.345 37.2745 25.7097 32.1449 26.2945V14.9129H26.3749V30.9774C26.3749 36.6548 21.7526 41.2748 16.0725 41.2748Z" fill="url(#paint0_linear_211_7471)"/>
<defs>
<linearGradient id="paint0_linear_211_7471" x1="-7.50836" y1="23.521" x2="51.1507" y2="23.521" gradientUnits="userSpaceOnUse">
<stop stop-color="#019DB8"/>
<stop offset="1" stop-color="#19A08B"/>
</linearGradient>
</defs>
</svg>
