<svg width="152" height="35" viewBox="0 0 152 35" fill="none" xmlns="http://www.w3.org/2000/svg">
<path d="M62.9175 13.2186C62.9175 9.79417 60.1532 7.02979 56.7289 7.02979H48.5859V27.5501H51.6802V19.4071H55.2632L59.9861 27.5501H63.4061L58.3575 19.0813C60.8692 18.3085 62.9175 16.3029 62.9175 13.2186ZM51.6802 16.4756V9.9613H56.7289C58.3303 9.9613 59.8233 11.4283 59.8233 13.2186C59.8233 15.0082 58.3307 16.4756 56.7289 16.4756H51.6802ZM70.4091 12.7299C66.6882 12.7299 63.5689 15.7741 63.5689 20.2214C63.5689 24.8012 66.8426 27.7129 70.5719 27.7129C73.6703 27.7129 75.8309 26.0928 76.9234 23.3158H73.8291C72.8726 24.6189 71.682 24.9444 70.5719 24.9444C68.4456 24.9444 66.8364 23.3493 66.6633 21.5243H77.0862C77.1766 21.0646 77.2491 20.579 77.2491 20.2214C77.2491 15.7232 74.0817 12.7299 70.4091 12.7299ZM66.6633 19.0813C66.9897 17.0809 68.3372 15.4984 70.4091 15.4984C72.7772 15.4984 74.1441 17.0256 74.4805 19.0813H66.6633ZM89.626 14.3585C88.7405 13.4056 87.2555 12.7299 85.5546 12.7299C81.8002 12.7299 78.5517 15.6667 78.5517 20.2214C78.5517 24.801 81.8255 27.7129 85.5546 27.7129C87.4936 27.7129 88.9073 27.034 89.7889 26.0844L90.4403 27.5501H92.5576V7.02979H89.626V14.3585ZM85.7175 24.9444C83.4647 24.9444 81.4832 23.0071 81.4832 20.2214C81.4832 17.4304 83.4709 15.4984 85.7175 15.4984C87.9818 15.4984 89.9518 17.4469 89.9518 20.2214C89.9518 23.0042 87.9728 24.9444 85.7175 24.9444ZM97.1176 7.02979C96.1129 7.02979 95.326 7.81651 95.326 8.82124C95.326 9.82598 96.1128 10.6128 97.1176 10.6128C98.1224 10.6128 98.9091 9.82598 98.9091 8.82124C98.9091 7.81704 98.1218 7.02979 97.1176 7.02979ZM95.6518 27.5501H98.5833V12.8928H95.6518V27.5501ZM116.009 13.2186C116.009 9.79417 113.245 7.02979 109.82 7.02979H101.677V27.5501H104.772V19.4071H108.355L113.078 27.5501H116.498L111.449 19.0813C113.961 18.3085 116.009 16.3029 116.009 13.2186ZM104.772 16.4756V9.9613H109.82C111.422 9.9613 112.915 11.4283 112.915 13.2186C112.915 15.0082 111.422 16.4756 109.82 16.4756H104.772ZM123.5 12.7299C119.78 12.7299 116.66 15.7741 116.66 20.2214C116.66 24.8012 119.934 27.7129 123.663 27.7129C126.762 27.7129 128.922 26.0928 130.015 23.3158H126.92C125.964 24.6189 124.773 24.9444 123.663 24.9444C121.537 24.9444 119.928 23.3493 119.755 21.5243H130.178C130.268 21.0646 130.341 20.579 130.341 20.2214C130.341 15.7232 127.173 12.7299 123.5 12.7299ZM119.755 19.0813C120.081 17.0809 121.429 15.4984 123.5 15.4984C125.869 15.4984 127.236 17.0256 127.572 19.0813H119.755ZM142.718 14.3585C141.832 13.4056 140.347 12.7299 138.646 12.7299C134.892 12.7299 131.643 15.6667 131.643 20.2214C131.643 24.801 134.917 27.7129 138.646 27.7129C140.585 27.7129 141.999 27.034 142.88 26.0844L143.532 27.5501H145.649V7.02979H142.718V14.3585ZM138.809 24.9444C136.556 24.9444 134.575 23.0071 134.575 20.2214C134.575 17.4304 136.562 15.4984 138.809 15.4984C141.073 15.4984 143.043 17.4469 143.043 20.2214C143.043 23.0042 141.064 24.9444 138.809 24.9444ZM148.743 27.5501H151.675V12.8928H148.743V27.5501ZM150.209 10.6128C151.214 10.6128 152 9.82598 152 8.82124C152 7.81704 151.213 7.02979 150.209 7.02979C149.204 7.02979 148.417 7.81651 148.417 8.82124C148.417 9.82598 149.204 10.6128 150.209 10.6128Z" fill="#FCFCFC"/>
<path d="M28.9214 22.0781C28.9216 22.0781 28.9217 22.0781 28.9217 22.0781C32.4104 20.0074 34.7429 16.2177 34.7429 11.8645C34.7429 5.30665 29.4336 0 22.8726 0C16.7071 0 11.6799 4.67886 11.0662 10.6229C7.44928 9.50852 4.81323 6.13652 4.81323 2.16049V0.271073H0.551762V2.16049C0.551762 6.44137 2.60654 10.2627 5.81779 12.6663C5.81763 12.6664 5.81749 12.6665 5.81733 12.6665C2.30654 14.7528 0 18.5537 0 22.8784C0 29.4355 5.31003 34.7429 11.8703 34.7429C18.0207 34.7429 23.0604 30.0783 23.6767 24.1214C27.2905 25.2377 29.9236 28.6082 29.9236 32.582V34.4716H34.185V32.582C34.185 28.3727 32.1883 24.5245 28.9214 22.0781ZM11.8703 30.4835C7.67491 30.4835 4.26147 27.0718 4.26147 22.8784C4.26147 18.9781 7.21382 15.7546 11.0023 15.3227V23.7286H15.2637V11.8645C15.2637 7.67118 18.6772 4.25938 22.8726 4.25938C27.068 4.25938 30.4814 7.67072 30.4814 11.8645C30.4814 15.7644 27.5291 18.9879 23.7406 19.4198V11.0139H19.4792V22.8784C19.4792 27.0714 16.0654 30.4835 11.8703 30.4835Z" fill="#FCFCFC"/>
</svg>
