<svg width="9" height="8" viewBox="0 0 9 8" fill="none" xmlns="http://www.w3.org/2000/svg">
<path d="M5.57077 3.24865C5.4916 3.24865 5.40756 3.18755 5.38303 3.11226L4.6081 0.727379C4.58358 0.652072 4.544 0.652072 4.51947 0.727379L3.74468 3.11226C3.72015 3.18756 3.63611 3.24865 3.55694 3.24865H1.04929C0.970122 3.24865 0.957789 3.28637 1.02189 3.33299L3.05051 4.80668C3.11461 4.8533 3.14674 4.95211 3.12222 5.02742L2.34744 7.41215C2.32292 7.48746 2.35505 7.51082 2.41915 7.46422L4.44776 5.99053C4.51187 5.94391 4.61572 5.94391 4.67983 5.99053L6.70844 7.46436C6.77254 7.51098 6.80468 7.4876 6.78015 7.41229L6.00536 5.02756C5.98083 4.95225 6.01296 4.85344 6.07707 4.80682L8.10568 3.33313C8.16978 3.28651 8.15745 3.24879 8.07828 3.24879H5.57077V3.24865Z" fill="#FFA800"/>
</svg>
