<svg width="7" height="6" viewBox="0 0 7 6" fill="none" xmlns="http://www.w3.org/2000/svg">
<path d="M4.24827 2.71056C4.18902 2.71056 4.12612 2.66483 4.10776 2.60848L3.52779 0.823582C3.50943 0.767221 3.47981 0.767221 3.46145 0.823582L2.88158 2.60848C2.86322 2.66485 2.80033 2.71056 2.74107 2.71056H0.864286C0.805032 2.71056 0.795801 2.7388 0.843777 2.77369L2.36204 3.87664C2.41002 3.91152 2.43407 3.98548 2.41571 4.04184L1.83585 5.82663C1.8175 5.883 1.84154 5.90048 1.88952 5.8656L3.40779 4.76265C3.45576 4.72777 3.53349 4.72777 3.58147 4.76265L5.09973 5.86571C5.14771 5.9006 5.17176 5.8831 5.1534 5.82674L4.57353 4.04194C4.55517 3.98558 4.57922 3.91163 4.62719 3.87674L6.14546 2.77379C6.19344 2.7389 6.18421 2.71067 6.12495 2.71067H4.24827V2.71056Z" fill="#D3D3D3"/>
</svg>
