<svg width="67" height="34" viewBox="0 0 67 34" fill="none" xmlns="http://www.w3.org/2000/svg">
<g clip-path="url(#clip0_211_8143)">
<rect width="66.4901" height="33.245" rx="16.6225" fill="url(#paint0_linear_211_8143)"/>
<mask id="mask0_211_8143" style="mask-type:alpha" maskUnits="userSpaceOnUse" x="35" y="1" width="30" height="31">
<circle cx="50.0329" cy="16.8348" r="14.8542" fill="#D9D9D9"/>
</mask>
<g mask="url(#mask0_211_8143)">
<rect x="31.877" y="0.330139" width="35.485" height="39.6111" fill="white"/>
</g>
<path d="M53.712 17.7237C54.802 16.9478 55.2943 15.8986 55.1419 14.6309C54.8724 12.5872 52.6689 11.2649 50.5591 11.9097C49.2347 12.314 48.426 13.1774 48.1447 14.456C48.0861 14.7074 48.0861 14.7183 47.8399 14.5981C46.8319 14.15 46.2811 13.4178 46.2576 12.3687C46.2576 12.2047 46.2576 12.0517 46.2576 11.8878C46.2576 11.7894 46.2107 11.7457 46.1053 11.7457C45.7771 11.7457 45.4372 11.7457 45.109 11.7457C44.9918 11.7457 44.9566 11.7894 44.9566 11.8878C44.9566 12.0517 44.9566 12.2266 44.9566 12.3905C45.0035 13.4834 45.4489 14.4014 46.328 15.1227C46.3866 15.1664 46.4569 15.1992 46.4803 15.2757C44.8043 16.3249 44.523 18.0407 45.0387 19.2975C45.5896 20.6417 46.996 21.4832 48.5549 21.4067C49.2933 21.3739 49.9614 21.1335 50.5474 20.6963C51.3093 20.1281 51.7429 19.3849 51.8719 18.4997C51.9422 18.4778 51.9891 18.4887 52.0242 18.5106C52.915 18.8494 53.4659 19.4614 53.6768 20.3466C53.7472 20.6417 53.7354 20.9477 53.7237 21.2428C53.7237 21.363 53.7589 21.4176 53.8995 21.4176C54.216 21.4067 54.5207 21.4176 54.8372 21.4176C54.9427 21.4176 54.9896 21.3849 54.9896 21.2756C54.9896 21.1116 54.9896 20.9368 54.9896 20.7728C54.9778 19.68 54.5207 18.7838 53.6534 18.0625C53.5948 18.0079 53.5128 17.9751 53.4776 17.8877C53.5479 17.8112 53.63 17.7784 53.712 17.7237ZM52.2235 17.0789C52.1766 17.0899 52.1297 17.1008 52.0828 17.1117C51.907 17.1336 51.8953 17.1227 51.8836 16.9478C51.8836 16.8822 51.8836 16.8276 51.8836 16.762C51.8836 16.1828 51.8836 15.5926 51.8836 15.0134C51.8836 14.8167 51.8836 14.8167 51.6843 14.8167C51.3913 14.8167 51.0983 14.8167 50.8053 14.8167C50.606 14.8167 50.606 14.8276 50.606 15.0134C50.606 15.5598 50.606 16.1063 50.606 16.6636C50.606 17.1445 50.5943 17.6144 50.606 18.0953C50.6295 19.1882 49.6918 20.1062 48.5783 20.2046C47.3945 20.3138 46.328 19.5707 46.1053 18.456C45.8943 17.3959 46.6913 16.2921 47.8048 16.0626C47.8516 16.0516 47.8985 16.0516 47.9454 16.0407C48.0275 16.0298 48.0743 16.0626 48.0743 16.1391C48.0743 16.2046 48.0743 16.2593 48.0743 16.3249C48.0743 16.9259 48.0743 17.527 48.0743 18.1281C48.0743 18.3357 48.0743 18.3467 48.3088 18.3467C48.6018 18.3467 48.8948 18.3467 49.1878 18.3467C49.2933 18.3467 49.3519 18.3139 49.3402 18.2046C49.3402 18.139 49.3402 18.0844 49.3402 18.0188C49.3402 17.0352 49.3285 16.0516 49.3402 15.0681C49.3753 14.15 49.8559 13.4725 50.7701 13.1009C52.0945 12.5763 53.6065 13.385 53.8527 14.6965C54.0285 15.6036 53.4659 16.762 52.2235 17.0789Z" fill="#8C35D3" fill-opacity="0.52"/>
</g>
<defs>
<linearGradient id="paint0_linear_211_8143" x1="0.408531" y1="17.3047" x2="118.182" y2="17.3047" gradientUnits="userSpaceOnUse">
<stop stop-color="#8C35D3"/>
<stop offset="1" stop-color="#481B6D"/>
</linearGradient>
<clipPath id="clip0_211_8143">
<rect width="66.4901" height="33.245" fill="white"/>
</clipPath>
</defs>
</svg>
