<svg width="24" height="25" viewBox="0 0 24 25" fill="none" xmlns="http://www.w3.org/2000/svg">
<path d="M19.071 5.45001C22.976 9.35501 22.976 15.687 19.071 19.592C15.166 23.497 8.83399 23.497 4.92899 19.592C1.02399 15.687 1.02399 9.35501 4.92899 5.45001C8.83399 1.54501 15.166 1.54501 19.071 5.45001" stroke="#293450" stroke-width="1.5" stroke-linecap="round" stroke-linejoin="round"/>
<path d="M5.5 12.521H18.5" stroke="#293450" stroke-width="1.5" stroke-linecap="round" stroke-linejoin="round"/>
<path fill-rule="evenodd" clip-rule="evenodd" d="M12 19.021C15.5899 19.021 18.5 16.1109 18.5 12.521C18.5 8.93116 15.5899 6.02101 12 6.02101C8.41015 6.02101 5.5 8.93116 5.5 12.521C5.5 16.1109 8.41015 19.021 12 19.021Z" stroke="#293450" stroke-width="1.5" stroke-linecap="round" stroke-linejoin="round"/>
<path fill-rule="evenodd" clip-rule="evenodd" d="M12 19.021C13.5878 19.021 14.875 16.1109 14.875 12.521C14.875 8.93116 13.5878 6.02101 12 6.02101C10.4122 6.02101 9.125 8.93116 9.125 12.521C9.125 16.1109 10.4122 19.021 12 19.021Z" stroke="#293450" stroke-width="1.5" stroke-linecap="round" stroke-linejoin="round"/>
</svg>
