<svg width="15" height="16" viewBox="0 0 15 16" fill="none" xmlns="http://www.w3.org/2000/svg">
<path d="M12.8911 9.35513C14.4688 8.1518 15.1813 6.52478 14.9608 4.55879C14.5706 1.38947 11.3813 -0.661261 8.32761 0.338683C6.41061 0.965767 5.24005 2.30467 4.8329 4.28761C4.74807 4.67742 4.74807 4.69437 4.39182 4.50794C2.93286 3.81306 2.13552 2.67753 2.10159 1.05051C2.10159 0.796285 2.10159 0.55901 2.10159 0.304787C2.10159 0.152253 2.03373 0.0844602 1.88105 0.0844602C1.40604 0.0844602 0.914062 0.0844602 0.439052 0.0844602C0.269406 0.0844602 0.218512 0.152253 0.218512 0.304787C0.218512 0.55901 0.218512 0.830181 0.218512 1.0844C0.28637 2.77922 0.931027 4.20287 2.20338 5.32145C2.2882 5.38925 2.38999 5.44009 2.42392 5.55873C-0.00202855 7.18576 -0.40918 9.84662 0.337264 11.7957C1.1346 13.8803 3.17036 15.1853 5.42666 15.0667C6.49543 15.0158 7.46242 14.643 8.31065 13.965C9.41335 13.0837 10.041 11.9313 10.2277 10.5584C10.3294 10.5246 10.3973 10.5415 10.4482 10.5754C11.7375 11.1008 12.5348 12.0499 12.8402 13.4227C12.942 13.8803 12.925 14.3548 12.9081 14.8124C12.9081 14.9989 12.959 15.0836 13.1625 15.0836C13.6206 15.0667 14.0617 15.0836 14.5197 15.0836C14.6724 15.0836 14.7403 15.0328 14.7403 14.8633C14.7403 14.6091 14.7403 14.3379 14.7403 14.0837C14.7233 12.3889 14.0617 10.9991 12.8063 9.88052C12.7215 9.79578 12.6027 9.74494 12.5518 9.60935C12.6536 9.49071 12.7724 9.43987 12.8911 9.35513ZM10.7366 8.35518C10.6687 8.37213 10.6009 8.38908 10.533 8.40603C10.2785 8.43992 10.2616 8.42297 10.2446 8.1518C10.2446 8.05011 10.2446 7.96537 10.2446 7.86368C10.2446 6.96543 10.2446 6.05023 10.2446 5.15197C10.2446 4.84691 10.2446 4.84691 9.95622 4.84691C9.5321 4.84691 9.10799 4.84691 8.68387 4.84691C8.39547 4.84691 8.39547 4.86385 8.39547 5.15197C8.39547 5.99938 8.39547 6.84679 8.39547 7.71115C8.39547 8.45687 8.37851 9.18564 8.39547 9.93137C8.4294 11.6262 7.07223 13.0498 5.46059 13.2024C3.74716 13.3719 2.20338 12.2194 1.88105 10.4907C1.57568 8.84668 2.72928 7.13491 4.34092 6.779C4.40878 6.76205 4.47664 6.76205 4.5445 6.7451C4.66325 6.72816 4.73111 6.779 4.73111 6.89764C4.73111 6.99933 4.73111 7.08407 4.73111 7.18576C4.73111 8.11791 4.73111 9.05006 4.73111 9.98221C4.73111 10.3042 4.73111 10.3212 5.0704 10.3212C5.49452 10.3212 5.91863 10.3212 6.34275 10.3212C6.49543 10.3212 6.58026 10.2703 6.56329 10.1008C6.56329 9.99916 6.56329 9.91442 6.56329 9.81273C6.56329 8.28739 6.54633 6.76205 6.56329 5.23671C6.61418 3.81306 7.30974 2.76228 8.63298 2.18604C10.55 1.37252 12.7384 2.62669 13.0947 4.66047C13.3492 6.06718 12.5348 7.86368 10.7366 8.35518Z" fill="#8C35D3"/>
</svg>
